<svg xmlns="http://www.w3.org/2000/svg" xmlns:xlink="http://www.w3.org/1999/xlink" width="2000" zoomAndPan="magnify" viewBox="0 0 1500 1499.999933" height="2000" preserveAspectRatio="xMidYMid meet" version="1.0"><defs><clipPath id="7d89d8685c"><path d="M 11.886719 11.949219 L 160.335938 11.949219 L 160.335938 370.316406 L 11.886719 370.316406 Z M 11.886719 11.949219 " clip-rule="nonzero"/></clipPath><clipPath id="13042daee3"><path d="M 63.554688 264.488281 L 63.554688 319.265625 L 86.214844 319.265625 C 101.175781 319.265625 108.679688 311.175781 108.679688 294.972656 L 108.679688 288.753906 C 108.679688 277.316406 103.980469 269.769531 94.609375 266.117188 C 91.933594 265.03125 86.996094 264.464844 79.820312 264.464844 Z M 63.554688 62.902344 L 63.554688 213.363281 L 79.800781 213.363281 C 86.976562 213.363281 91.914062 212.882812 94.585938 211.90625 C 103.960938 208.140625 108.65625 200.53125 108.65625 189.070312 L 108.65625 87.363281 C 108.65625 71.054688 101.175781 62.902344 86.191406 62.902344 Z M 11.886719 11.949219 L 91.5 11.949219 C 137.382812 12.082031 160.324219 37.21875 160.324219 87.363281 L 160.324219 189.070312 C 160.324219 212.558594 150.886719 229.191406 132.035156 238.914062 C 150.910156 248.65625 160.324219 265.269531 160.324219 288.753906 L 160.324219 294.972656 C 160.324219 345.011719 136.273438 370.085938 88.195312 370.195312 L 11.886719 370.195312 Z M 11.886719 11.949219 " clip-rule="nonzero"/></clipPath><clipPath id="c85134c78f"><path d="M 0.886719 0.949219 L 149.335938 0.949219 L 149.335938 359.199219 L 0.886719 359.199219 Z M 0.886719 0.949219 " clip-rule="nonzero"/></clipPath><clipPath id="e44dc14439"><path d="M 52.554688 253.488281 L 52.554688 308.265625 L 75.214844 308.265625 C 90.175781 308.265625 97.679688 300.175781 97.679688 283.972656 L 97.679688 277.753906 C 97.679688 266.316406 92.980469 258.769531 83.609375 255.117188 C 80.933594 254.03125 75.996094 253.464844 68.820312 253.464844 Z M 52.554688 51.902344 L 52.554688 202.363281 L 68.800781 202.363281 C 75.976562 202.363281 80.914062 201.882812 83.585938 200.90625 C 92.960938 197.140625 97.65625 189.53125 97.65625 178.070312 L 97.65625 76.363281 C 97.65625 60.054688 90.175781 51.902344 75.191406 51.902344 Z M 0.886719 0.949219 L 80.5 0.949219 C 126.382812 1.082031 149.324219 26.21875 149.324219 76.363281 L 149.324219 178.070312 C 149.324219 201.558594 139.886719 218.191406 121.035156 227.914062 C 139.910156 237.65625 149.324219 254.269531 149.324219 277.753906 L 149.324219 283.972656 C 149.324219 334.011719 125.273438 359.085938 77.195312 359.195312 L 0.886719 359.195312 Z M 0.886719 0.949219 " clip-rule="nonzero"/></clipPath><clipPath id="3a2763a763"><rect x="0" width="150" y="0" height="360"/></clipPath><clipPath id="033939a722"><path d="M 11.820312 409.25 L 46.578125 409.25 L 46.578125 449.554688 L 11.820312 449.554688 Z M 11.820312 409.25 " clip-rule="nonzero"/></clipPath><clipPath id="051de1b0a2"><path d="M 38.15625 443.097656 C 39.808594 442.03125 40.613281 440.359375 40.613281 438.097656 C 40.613281 433.660156 37.351562 431.441406 30.808594 431.441406 L 17.628906 431.441406 L 17.628906 444.707031 L 30.808594 444.707031 C 34.046875 444.707031 36.503906 444.1875 38.15625 443.121094 M 17.628906 414.089844 L 17.628906 426.832031 L 29.394531 426.832031 C 32.328125 426.832031 34.589844 426.289062 36.179688 425.222656 C 37.765625 424.15625 38.570312 422.546875 38.570312 420.484375 C 38.570312 418.417969 37.789062 416.808594 36.179688 415.742188 C 34.570312 414.675781 32.328125 414.132812 29.394531 414.132812 Z M 44.398438 432.160156 C 45.746094 433.855469 46.398438 435.988281 46.398438 438.554688 C 46.398438 442.011719 45.09375 444.664062 42.460938 446.511719 C 39.832031 448.359375 36.027344 449.296875 31.023438 449.296875 L 11.886719 449.296875 L 11.886719 409.480469 L 29.894531 409.480469 C 34.480469 409.480469 38.027344 410.390625 40.527344 412.21875 C 43.027344 414.046875 44.289062 416.570312 44.289062 419.785156 C 44.289062 421.875 43.8125 423.679688 42.832031 425.179688 C 41.855469 426.679688 40.550781 427.855469 38.894531 428.660156 C 41.222656 429.3125 43.070312 430.464844 44.398438 432.160156 " clip-rule="nonzero"/></clipPath><clipPath id="755e7ad8f9"><path d="M 0.820312 0.320312 L 35.480469 0.320312 L 35.480469 40.398438 L 0.820312 40.398438 Z M 0.820312 0.320312 " clip-rule="nonzero"/></clipPath><clipPath id="abf36ae7a7"><path d="M 27.15625 34.097656 C 28.808594 33.03125 29.613281 31.359375 29.613281 29.097656 C 29.613281 24.660156 26.351562 22.441406 19.808594 22.441406 L 6.628906 22.441406 L 6.628906 35.707031 L 19.808594 35.707031 C 23.046875 35.707031 25.503906 35.1875 27.15625 34.121094 M 6.628906 5.089844 L 6.628906 17.832031 L 18.394531 17.832031 C 21.328125 17.832031 23.589844 17.289062 25.179688 16.222656 C 26.765625 15.15625 27.570312 13.546875 27.570312 11.484375 C 27.570312 9.417969 26.789062 7.808594 25.179688 6.742188 C 23.570312 5.675781 21.328125 5.132812 18.394531 5.132812 Z M 33.398438 23.160156 C 34.746094 24.855469 35.398438 26.988281 35.398438 29.554688 C 35.398438 33.011719 34.09375 35.664062 31.460938 37.511719 C 28.832031 39.359375 25.027344 40.296875 20.023438 40.296875 L 0.886719 40.296875 L 0.886719 0.480469 L 18.894531 0.480469 C 23.480469 0.480469 27.027344 1.390625 29.527344 3.21875 C 32.027344 5.046875 33.289062 7.570312 33.289062 10.785156 C 33.289062 12.875 32.8125 14.679688 31.832031 16.179688 C 30.855469 17.679688 29.550781 18.855469 27.894531 19.660156 C 30.222656 20.3125 32.070312 21.464844 33.398438 23.160156 " clip-rule="nonzero"/></clipPath><clipPath id="769979723e"><rect x="0" width="36" y="0" height="41"/></clipPath><clipPath id="b199647af1"><path d="M 49.207031 409.25 L 91.558594 409.25 L 91.558594 449.554688 L 49.207031 449.554688 Z M 49.207031 409.25 " clip-rule="nonzero"/></clipPath><clipPath id="ef16a24b9a"><path d="M 78.867188 434.792969 L 70.210938 415.285156 L 61.554688 434.792969 Z M 80.867188 439.335938 L 59.535156 439.335938 L 55.117188 449.296875 L 49.226562 449.296875 L 67.382812 409.480469 L 73.058594 409.480469 L 91.28125 449.296875 L 85.28125 449.296875 Z M 80.867188 439.335938 " clip-rule="nonzero"/></clipPath><clipPath id="ca33bfa777"><path d="M 0.207031 0.320312 L 42.359375 0.320312 L 42.359375 40.398438 L 0.207031 40.398438 Z M 0.207031 0.320312 " clip-rule="nonzero"/></clipPath><clipPath id="af6fcfc761"><path d="M 29.867188 25.792969 L 21.210938 6.285156 L 12.554688 25.792969 Z M 31.867188 30.335938 L 10.535156 30.335938 L 6.117188 40.296875 L 0.226562 40.296875 L 18.382812 0.480469 L 24.058594 0.480469 L 42.28125 40.296875 L 36.28125 40.296875 Z M 31.867188 30.335938 " clip-rule="nonzero"/></clipPath><clipPath id="36dd048f3d"><rect x="0" width="43" y="0" height="41"/></clipPath><clipPath id="20e0b629fe"><path d="M 97.109375 409.25 L 131.863281 409.25 L 131.863281 449.554688 L 97.109375 449.554688 Z M 97.109375 409.25 " clip-rule="nonzero"/></clipPath><clipPath id="7f2c109c98"><path d="M 131.796875 409.480469 L 131.796875 449.296875 L 127.078125 449.296875 L 103.003906 419.613281 L 103.003906 449.296875 L 97.261719 449.296875 L 97.261719 409.480469 L 101.960938 409.480469 L 126.054688 439.183594 L 126.054688 409.480469 Z M 131.796875 409.480469 " clip-rule="nonzero"/></clipPath><clipPath id="9e27719b6c"><path d="M 0.121094 0.320312 L 34.863281 0.320312 L 34.863281 40.398438 L 0.121094 40.398438 Z M 0.121094 0.320312 " clip-rule="nonzero"/></clipPath><clipPath id="5766868e2b"><path d="M 34.796875 0.480469 L 34.796875 40.296875 L 30.078125 40.296875 L 6.003906 10.613281 L 6.003906 40.296875 L 0.261719 40.296875 L 0.261719 0.480469 L 4.960938 0.480469 L 29.054688 30.183594 L 29.054688 0.480469 Z M 34.796875 0.480469 " clip-rule="nonzero"/></clipPath><clipPath id="9ba513f598"><rect x="0" width="35" y="0" height="41"/></clipPath><clipPath id="9d79ba04f0"><path d="M 143.546875 409.25 L 182.6875 409.25 L 182.6875 449.554688 L 143.546875 449.554688 Z M 143.546875 409.25 " clip-rule="nonzero"/></clipPath><clipPath id="1371545f68"><path d="M 160.390625 444.359375 C 163.632812 444.359375 166.503906 443.730469 168.960938 442.488281 C 171.417969 441.25 173.332031 439.488281 174.65625 437.226562 C 175.984375 434.964844 176.65625 432.355469 176.65625 429.398438 C 176.65625 426.441406 175.984375 423.832031 174.65625 421.570312 C 173.332031 419.308594 171.417969 417.546875 168.960938 416.308594 C 166.503906 415.066406 163.632812 414.4375 160.390625 414.4375 L 149.5625 414.4375 L 149.5625 444.359375 Z M 143.820312 409.480469 L 160.738281 409.480469 C 164.980469 409.480469 168.742188 410.304688 172.027344 411.980469 C 175.308594 413.65625 177.855469 416.003906 179.679688 419.003906 C 181.507812 422.003906 182.398438 425.484375 182.398438 429.375 C 182.398438 433.269531 181.484375 436.75 179.679688 439.769531 C 177.875 442.792969 175.308594 445.121094 172.027344 446.796875 C 168.742188 448.46875 164.980469 449.296875 160.738281 449.296875 L 143.820312 449.296875 Z M 143.820312 409.480469 " clip-rule="nonzero"/></clipPath><clipPath id="1e0ff5ccde"><path d="M 0.679688 0.320312 L 39.558594 0.320312 L 39.558594 40.398438 L 0.679688 40.398438 Z M 0.679688 0.320312 " clip-rule="nonzero"/></clipPath><clipPath id="305bf4a94c"><path d="M 17.390625 35.359375 C 20.632812 35.359375 23.503906 34.730469 25.960938 33.488281 C 28.417969 32.25 30.332031 30.488281 31.65625 28.226562 C 32.984375 25.964844 33.65625 23.355469 33.65625 20.398438 C 33.65625 17.441406 32.984375 14.832031 31.65625 12.570312 C 30.332031 10.308594 28.417969 8.546875 25.960938 7.308594 C 23.503906 6.066406 20.632812 5.4375 17.390625 5.4375 L 6.5625 5.4375 L 6.5625 35.359375 Z M 0.820312 0.480469 L 17.738281 0.480469 C 21.980469 0.480469 25.742188 1.304688 29.027344 2.980469 C 32.308594 4.65625 34.855469 7.003906 36.679688 10.003906 C 38.507812 13.003906 39.398438 16.484375 39.398438 20.375 C 39.398438 24.269531 38.484375 27.75 36.679688 30.769531 C 34.875 33.792969 32.308594 36.121094 29.027344 37.796875 C 25.742188 39.46875 21.980469 40.296875 17.738281 40.296875 L 0.820312 40.296875 Z M 0.820312 0.480469 " clip-rule="nonzero"/></clipPath><clipPath id="cd7f55d13b"><rect x="0" width="40" y="0" height="41"/></clipPath><clipPath id="3ac75f932f"><path d="M 191.183594 409.480469 L 196.925781 409.480469 L 196.925781 449.296875 L 191.183594 449.296875 Z M 191.183594 409.480469 " clip-rule="nonzero"/></clipPath><clipPath id="bb73ed1a1b"><path d="M 0.183594 0.480469 L 5.925781 0.480469 L 5.925781 40.296875 L 0.183594 40.296875 Z M 0.183594 0.480469 " clip-rule="nonzero"/></clipPath><clipPath id="824e490d61"><rect x="0" width="6" y="0" height="41"/></clipPath><clipPath id="b696940836"><path d="M 208.679688 409.25 L 242.269531 409.25 L 242.269531 449.554688 L 208.679688 449.554688 Z M 208.679688 409.25 " clip-rule="nonzero"/></clipPath><clipPath id="24c33a3d62"><path d="M 232.761719 430.007812 C 234.675781 428.464844 235.632812 426.222656 235.632812 423.351562 C 235.632812 420.484375 234.675781 418.265625 232.761719 416.71875 C 230.847656 415.175781 228.085938 414.414062 224.457031 414.414062 L 214.714844 414.414062 L 214.714844 432.335938 L 224.457031 432.335938 C 228.085938 432.335938 230.871094 431.550781 232.761719 430.007812 M 235.808594 449.296875 L 227.152344 437.074219 C 226.085938 437.160156 225.238281 437.183594 224.628906 437.183594 L 214.714844 437.183594 L 214.714844 449.296875 L 208.972656 449.296875 L 208.972656 409.480469 L 224.628906 409.480469 C 229.828125 409.480469 233.914062 410.71875 236.894531 413.175781 C 239.875 415.632812 241.375 419.027344 241.375 423.351562 C 241.375 426.417969 240.613281 429.050781 239.070312 431.203125 C 237.523438 433.355469 235.371094 434.945312 232.546875 435.921875 L 242.070312 449.296875 Z M 235.808594 449.296875 " clip-rule="nonzero"/></clipPath><clipPath id="565be67917"><path d="M 0.960938 0.320312 L 34.078125 0.320312 L 34.078125 40.398438 L 0.960938 40.398438 Z M 0.960938 0.320312 " clip-rule="nonzero"/></clipPath><clipPath id="e7a5004c2a"><path d="M 24.761719 21.007812 C 26.675781 19.464844 27.632812 17.222656 27.632812 14.351562 C 27.632812 11.484375 26.675781 9.265625 24.761719 7.71875 C 22.847656 6.175781 20.085938 5.414062 16.457031 5.414062 L 6.714844 5.414062 L 6.714844 23.335938 L 16.457031 23.335938 C 20.085938 23.335938 22.871094 22.550781 24.761719 21.007812 M 27.808594 40.296875 L 19.152344 28.074219 C 18.085938 28.160156 17.238281 28.183594 16.628906 28.183594 L 6.714844 28.183594 L 6.714844 40.296875 L 0.972656 40.296875 L 0.972656 0.480469 L 16.628906 0.480469 C 21.828125 0.480469 25.914062 1.71875 28.894531 4.175781 C 31.875 6.632812 33.375 10.027344 33.375 14.351562 C 33.375 17.417969 32.613281 20.050781 31.070312 22.203125 C 29.523438 24.355469 27.371094 25.945312 24.546875 26.921875 L 34.070312 40.296875 Z M 27.808594 40.296875 " clip-rule="nonzero"/></clipPath><clipPath id="c36573c05d"><rect x="0" width="35" y="0" height="41"/></clipPath><clipPath id="ac67f4b70f"><path d="M 250.449219 409.25 L 293.382812 409.25 L 293.382812 449.554688 L 250.449219 449.554688 Z M 250.449219 409.25 " clip-rule="nonzero"/></clipPath><clipPath id="c36f4fc612"><path d="M 287.867188 449.296875 L 287.800781 420.285156 L 273.296875 444.46875 L 270.664062 444.46875 L 256.160156 420.460938 L 256.160156 449.296875 L 250.660156 449.296875 L 250.660156 409.480469 L 255.355469 409.480469 L 272.101562 437.464844 L 288.605469 409.480469 L 293.304688 409.480469 L 293.367188 449.296875 Z M 287.867188 449.296875 " clip-rule="nonzero"/></clipPath><clipPath id="c4c57004fb"><path d="M 0.480469 0.320312 L 43.382812 0.320312 L 43.382812 40.398438 L 0.480469 40.398438 Z M 0.480469 0.320312 " clip-rule="nonzero"/></clipPath><clipPath id="9e8374bd32"><path d="M 37.867188 40.296875 L 37.800781 11.285156 L 23.296875 35.46875 L 20.664062 35.46875 L 6.160156 11.460938 L 6.160156 40.296875 L 0.660156 40.296875 L 0.660156 0.480469 L 5.355469 0.480469 L 22.101562 28.464844 L 38.605469 0.480469 L 43.304688 0.480469 L 43.367188 40.296875 Z M 37.867188 40.296875 " clip-rule="nonzero"/></clipPath><clipPath id="7429e02540"><rect x="0" width="44" y="0" height="41"/></clipPath><clipPath id="0ccb9f266f"><path d="M 299.226562 409.25 L 341.574219 409.25 L 341.574219 449.554688 L 299.226562 449.554688 Z M 299.226562 409.25 " clip-rule="nonzero"/></clipPath><clipPath id="e469e2d690"><path d="M 328.988281 434.792969 L 320.332031 415.285156 L 311.679688 434.792969 Z M 330.988281 439.335938 L 309.65625 439.335938 L 305.242188 449.296875 L 299.328125 449.296875 L 317.507812 409.480469 L 323.183594 409.480469 L 341.425781 449.296875 L 335.402344 449.296875 Z M 330.988281 439.335938 " clip-rule="nonzero"/></clipPath><clipPath id="27bca8801e"><path d="M 0.226562 0.320312 L 42.441406 0.320312 L 42.441406 40.398438 L 0.226562 40.398438 Z M 0.226562 0.320312 " clip-rule="nonzero"/></clipPath><clipPath id="19d2116a86"><path d="M 29.988281 25.792969 L 21.332031 6.285156 L 12.679688 25.792969 Z M 31.988281 30.335938 L 10.65625 30.335938 L 6.242188 40.296875 L 0.328125 40.296875 L 18.507812 0.480469 L 24.183594 0.480469 L 42.425781 40.296875 L 36.402344 40.296875 Z M 31.988281 30.335938 " clip-rule="nonzero"/></clipPath><clipPath id="befff89d26"><rect x="0" width="43" y="0" height="41"/></clipPath><clipPath id="c16a20c858"><path d="M 359.394531 409 L 396.488281 409 L 396.488281 449.847656 L 359.394531 449.847656 Z M 359.394531 409 " clip-rule="nonzero"/></clipPath><clipPath id="549cc09eaf"><path d="M 390.617188 429.160156 L 396.117188 429.160156 L 396.117188 444.6875 C 394.117188 446.316406 391.8125 447.578125 389.183594 448.449219 C 386.550781 449.316406 383.789062 449.753906 380.917969 449.753906 C 376.875 449.753906 373.21875 448.859375 369.957031 447.101562 C 366.695312 445.339844 364.152344 442.902344 362.304688 439.816406 C 360.457031 436.726562 359.519531 433.246094 359.519531 429.375 C 359.519531 425.507812 360.457031 422.027344 362.304688 418.917969 C 364.152344 415.808594 366.71875 413.371094 369.980469 411.632812 C 373.242188 409.890625 376.9375 409.023438 381.027344 409.023438 C 384.246094 409.023438 387.160156 409.542969 389.769531 410.589844 C 392.378906 411.632812 394.617188 413.15625 396.445312 415.15625 L 392.878906 418.679688 C 389.660156 415.613281 385.789062 414.066406 381.246094 414.066406 C 378.179688 414.066406 375.4375 414.71875 373.023438 416.023438 C 370.609375 417.328125 368.695312 419.15625 367.328125 421.484375 C 365.957031 423.808594 365.261719 426.441406 365.261719 429.355469 C 365.261719 432.246094 365.957031 434.855469 367.328125 437.183594 C 368.695312 439.511719 370.609375 441.335938 373.023438 442.664062 C 375.4375 443.988281 378.179688 444.664062 381.199219 444.664062 C 384.789062 444.664062 387.921875 443.816406 390.59375 442.097656 Z M 390.617188 429.160156 " clip-rule="nonzero"/></clipPath><clipPath id="cc60c66d2d"><path d="M 0.441406 0 L 37.488281 0 L 37.488281 40.847656 L 0.441406 40.847656 Z M 0.441406 0 " clip-rule="nonzero"/></clipPath><clipPath id="1c42385b09"><path d="M 31.617188 20.160156 L 37.117188 20.160156 L 37.117188 35.6875 C 35.117188 37.316406 32.8125 38.578125 30.183594 39.449219 C 27.550781 40.316406 24.789062 40.753906 21.917969 40.753906 C 17.875 40.753906 14.21875 39.859375 10.957031 38.101562 C 7.695312 36.339844 5.152344 33.902344 3.304688 30.816406 C 1.457031 27.726562 0.519531 24.246094 0.519531 20.375 C 0.519531 16.507812 1.457031 13.027344 3.304688 9.917969 C 5.152344 6.808594 7.71875 4.371094 10.980469 2.632812 C 14.242188 0.890625 17.9375 0.0234375 22.027344 0.0234375 C 25.246094 0.0234375 28.160156 0.542969 30.769531 1.589844 C 33.378906 2.632812 35.617188 4.15625 37.445312 6.15625 L 33.878906 9.679688 C 30.660156 6.613281 26.789062 5.066406 22.246094 5.066406 C 19.179688 5.066406 16.4375 5.71875 14.023438 7.023438 C 11.609375 8.328125 9.695312 10.15625 8.328125 12.484375 C 6.957031 14.808594 6.261719 17.441406 6.261719 20.355469 C 6.261719 23.246094 6.957031 25.855469 8.328125 28.183594 C 9.695312 30.511719 11.609375 32.335938 14.023438 33.664062 C 16.4375 34.988281 19.179688 35.664062 22.199219 35.664062 C 25.789062 35.664062 28.921875 34.816406 31.59375 33.097656 Z M 31.617188 20.160156 " clip-rule="nonzero"/></clipPath><clipPath id="cca1f21c29"><rect x="0" width="38" y="0" height="41"/></clipPath><clipPath id="30ae82d843"><path d="M 407 409.25 L 436.5 409.25 L 436.5 449.554688 L 407 449.554688 Z M 407 409.25 " clip-rule="nonzero"/></clipPath><clipPath id="ea6ffe22f3"><path d="M 436.21875 444.359375 L 436.21875 449.316406 L 407.078125 449.316406 L 407.078125 409.480469 L 435.414062 409.480469 L 435.414062 414.4375 L 412.820312 414.4375 L 412.820312 426.660156 L 432.957031 426.660156 L 432.957031 431.484375 L 412.820312 431.484375 L 412.820312 444.339844 Z M 436.21875 444.359375 " clip-rule="nonzero"/></clipPath><clipPath id="c3f80937b2"><path d="M 0 0.320312 L 29.238281 0.320312 L 29.238281 40.398438 L 0 40.398438 Z M 0 0.320312 " clip-rule="nonzero"/></clipPath><clipPath id="a4724cb0b7"><path d="M 29.21875 35.359375 L 29.21875 40.316406 L 0.078125 40.316406 L 0.078125 0.480469 L 28.414062 0.480469 L 28.414062 5.4375 L 5.820312 5.4375 L 5.820312 17.660156 L 25.957031 17.660156 L 25.957031 22.484375 L 5.820312 22.484375 L 5.820312 35.339844 Z M 29.21875 35.359375 " clip-rule="nonzero"/></clipPath><clipPath id="43493965f9"><rect x="0" width="30" y="0" height="41"/></clipPath><clipPath id="e1e2277619"><path d="M 445.261719 409.25 L 480.019531 409.25 L 480.019531 449.554688 L 445.261719 449.554688 Z M 445.261719 409.25 " clip-rule="nonzero"/></clipPath><clipPath id="c810aa47ad"><path d="M 480.015625 409.480469 L 480.015625 449.296875 L 475.316406 449.296875 L 451.222656 419.613281 L 451.222656 449.296875 L 445.503906 449.296875 L 445.503906 409.480469 L 450.199219 409.480469 L 474.296875 439.183594 L 474.296875 409.480469 Z M 480.015625 409.480469 " clip-rule="nonzero"/></clipPath><clipPath id="c4f25a7f2b"><path d="M 0.359375 0.320312 L 35.019531 0.320312 L 35.019531 40.398438 L 0.359375 40.398438 Z M 0.359375 0.320312 " clip-rule="nonzero"/></clipPath><clipPath id="d5c77ff040"><path d="M 35.015625 0.480469 L 35.015625 40.296875 L 30.316406 40.296875 L 6.222656 10.613281 L 6.222656 40.296875 L 0.503906 40.296875 L 0.503906 0.480469 L 5.199219 0.480469 L 29.296875 30.183594 L 29.296875 0.480469 Z M 35.015625 0.480469 " clip-rule="nonzero"/></clipPath><clipPath id="1cda872702"><rect x="0" width="36" y="0" height="41"/></clipPath><clipPath id="c547c20715"><path d="M 488.492188 409 L 525.585938 409 L 525.585938 462.113281 L 488.492188 462.113281 Z M 488.492188 409 " clip-rule="nonzero"/></clipPath><clipPath id="026dd3b173"><path d="M 502.542969 460.800781 L 503.738281 458.015625 C 504.890625 458.667969 506.175781 458.996094 507.632812 458.996094 C 509.761719 458.996094 510.851562 458.234375 510.851562 456.710938 C 510.851562 456.039062 510.589844 455.492188 510.046875 455.082031 C 509.503906 454.667969 508.699219 454.492188 507.589844 454.492188 L 506.046875 454.492188 L 507.480469 448.925781 L 510.632812 448.925781 L 509.761719 452.167969 C 511.371094 452.320312 512.613281 452.820312 513.460938 453.667969 C 514.308594 454.515625 514.742188 455.582031 514.742188 456.886719 C 514.742188 458.472656 514.089844 459.734375 512.785156 460.667969 C 511.480469 461.605469 509.761719 462.0625 507.632812 462.0625 C 505.652344 462.0625 503.9375 461.648438 502.523438 460.800781 M 499.109375 447.121094 C 495.867188 445.359375 493.34375 442.925781 491.519531 439.835938 C 489.691406 436.75 488.757812 433.269531 488.757812 429.398438 C 488.757812 425.527344 489.671875 422.046875 491.519531 418.960938 C 493.367188 415.871094 495.890625 413.4375 499.152344 411.675781 C 502.414062 409.914062 506.046875 409.023438 510.066406 409.023438 C 513.199219 409.023438 516.070312 409.542969 518.65625 410.589844 C 521.246094 411.632812 523.464844 413.175781 525.3125 415.21875 L 521.59375 418.808594 C 518.570312 415.65625 514.808594 414.089844 510.308594 414.089844 C 507.328125 414.089844 504.632812 414.742188 502.21875 416.089844 C 499.804688 417.4375 497.933594 419.242188 496.5625 421.570312 C 495.195312 423.898438 494.519531 426.507812 494.519531 429.398438 C 494.519531 432.289062 495.195312 434.878906 496.5625 437.226562 C 497.933594 439.574219 499.804688 441.378906 502.21875 442.707031 C 504.632812 444.035156 507.328125 444.707031 510.308594 444.707031 C 514.785156 444.707031 518.550781 443.121094 521.59375 439.921875 L 525.3125 443.511719 C 523.484375 445.554688 521.246094 447.121094 518.636719 448.1875 C 516.027344 449.253906 513.132812 449.773438 510.003906 449.773438 C 505.980469 449.773438 502.371094 448.90625 499.128906 447.121094 " clip-rule="nonzero"/></clipPath><clipPath id="cdaaf6e548"><path d="M 0.558594 0 L 37.519531 0 L 37.519531 53.113281 L 0.558594 53.113281 Z M 0.558594 0 " clip-rule="nonzero"/></clipPath><clipPath id="4cf19f3acf"><path d="M 14.542969 51.800781 L 15.738281 49.015625 C 16.890625 49.667969 18.175781 49.996094 19.632812 49.996094 C 21.761719 49.996094 22.851562 49.234375 22.851562 47.710938 C 22.851562 47.039062 22.589844 46.492188 22.046875 46.082031 C 21.503906 45.667969 20.699219 45.492188 19.589844 45.492188 L 18.046875 45.492188 L 19.480469 39.925781 L 22.632812 39.925781 L 21.761719 43.167969 C 23.371094 43.320312 24.613281 43.820312 25.460938 44.667969 C 26.308594 45.515625 26.742188 46.582031 26.742188 47.886719 C 26.742188 49.472656 26.089844 50.734375 24.785156 51.667969 C 23.480469 52.605469 21.761719 53.0625 19.632812 53.0625 C 17.652344 53.0625 15.9375 52.648438 14.523438 51.800781 M 11.109375 38.121094 C 7.867188 36.359375 5.34375 33.925781 3.519531 30.835938 C 1.691406 27.75 0.757812 24.269531 0.757812 20.398438 C 0.757812 16.527344 1.671875 13.046875 3.519531 9.960938 C 5.367188 6.871094 7.890625 4.4375 11.152344 2.675781 C 14.414062 0.914062 18.046875 0.0234375 22.066406 0.0234375 C 25.199219 0.0234375 28.070312 0.542969 30.65625 1.589844 C 33.246094 2.632812 35.464844 4.175781 37.3125 6.21875 L 33.59375 9.808594 C 30.570312 6.65625 26.808594 5.089844 22.308594 5.089844 C 19.328125 5.089844 16.632812 5.742188 14.21875 7.089844 C 11.804688 8.4375 9.933594 10.242188 8.5625 12.570312 C 7.195312 14.898438 6.519531 17.507812 6.519531 20.398438 C 6.519531 23.289062 7.195312 25.878906 8.5625 28.226562 C 9.933594 30.574219 11.804688 32.378906 14.21875 33.707031 C 16.632812 35.035156 19.328125 35.707031 22.308594 35.707031 C 26.785156 35.707031 30.550781 34.121094 33.59375 30.921875 L 37.3125 34.511719 C 35.484375 36.554688 33.246094 38.121094 30.636719 39.1875 C 28.027344 40.253906 25.132812 40.773438 22.003906 40.773438 C 17.980469 40.773438 14.371094 39.90625 11.128906 38.121094 " clip-rule="nonzero"/></clipPath><clipPath id="aad4dfc74a"><rect x="0" width="38" y="0" height="54"/></clipPath><clipPath id="8ef5ac621c"><path d="M 185.375 11.429688 L 364 11.429688 L 364 370.742188 L 185.375 370.742188 Z M 185.375 11.429688 " clip-rule="nonzero"/></clipPath><clipPath id="0b745e31bf"><path d="M 274.449219 94.128906 L 237.9375 370.195312 L 185.898438 370.195312 L 239.21875 11.949219 L 310.070312 11.949219 L 363.195312 370.195312 L 310.980469 370.195312 Z M 274.449219 94.128906 " clip-rule="nonzero"/></clipPath><clipPath id="f9b841a7db"><path d="M 0.679688 0.878906 L 178.28125 0.878906 L 178.28125 359.199219 L 0.679688 359.199219 Z M 0.679688 0.878906 " clip-rule="nonzero"/></clipPath><clipPath id="c4779e1aff"><path d="M 89.449219 83.128906 L 52.9375 359.195312 L 0.898438 359.195312 L 54.21875 0.949219 L 125.070312 0.949219 L 178.195312 359.195312 L 125.980469 359.195312 Z M 89.449219 83.128906 " clip-rule="nonzero"/></clipPath><clipPath id="102b249eb0"><rect x="0" width="179" y="0" height="360"/></clipPath><clipPath id="cf2c618ef8"><path d="M 394 11.429688 L 543 11.429688 L 543 370.742188 L 394 370.742188 Z M 394 11.429688 " clip-rule="nonzero"/></clipPath><clipPath id="a649c01b3f"><path d="M 394.246094 11.949219 L 445.917969 11.949219 L 494.84375 219.734375 L 494.84375 11.949219 L 542.6875 11.949219 L 542.6875 370.195312 L 491.015625 370.195312 L 443.894531 168.980469 L 443.894531 370.195312 L 394.246094 370.195312 Z M 394.246094 11.949219 " clip-rule="nonzero"/></clipPath><clipPath id="c6ef153051"><path d="M 0.238281 0.878906 L 148.800781 0.878906 L 148.800781 359.199219 L 0.238281 359.199219 Z M 0.238281 0.878906 " clip-rule="nonzero"/></clipPath><clipPath id="28ee3fc13f"><path d="M 0.246094 0.949219 L 51.917969 0.949219 L 100.84375 208.734375 L 100.84375 0.949219 L 148.6875 0.949219 L 148.6875 359.195312 L 97.015625 359.195312 L 49.894531 157.980469 L 49.894531 359.195312 L 0.246094 359.195312 Z M 0.246094 0.949219 " clip-rule="nonzero"/></clipPath><clipPath id="dfdf6addc6"><rect x="0" width="149" y="0" height="360"/></clipPath><clipPath id="6172ab26f2"><path d="M 311.65625 327.769531 L 424.277344 327.769531 L 424.277344 370.195312 L 311.65625 370.195312 Z M 311.65625 327.769531 " clip-rule="nonzero"/></clipPath><clipPath id="967ab873e7"><path d="M 0.65625 0.769531 L 113.277344 0.769531 L 113.277344 43.195312 L 0.65625 43.195312 Z M 0.65625 0.769531 " clip-rule="nonzero"/></clipPath><clipPath id="2ebcdbadc8"><rect x="0" width="114" y="0" height="44"/></clipPath><clipPath id="9c7ea35c75"><path d="M 548.324219 398.402344 L 555.421875 398.402344 L 555.421875 449.382812 L 548.324219 449.382812 Z M 548.324219 398.402344 " clip-rule="nonzero"/></clipPath><clipPath id="cd5f711e13"><path d="M 548.945312 409.480469 L 554.664062 409.480469 L 554.664062 449.296875 L 548.945312 449.296875 Z M 549.402344 404.242188 C 548.75 403.589844 548.425781 402.804688 548.425781 401.847656 C 548.425781 400.890625 548.75 400.109375 549.402344 399.457031 C 550.054688 398.804688 550.859375 398.5 551.792969 398.5 C 552.730469 398.5 553.554688 398.824219 554.207031 399.457031 C 554.859375 400.085938 555.1875 400.890625 555.1875 401.847656 C 555.1875 402.804688 554.859375 403.589844 554.207031 404.242188 C 553.554688 404.894531 552.75 405.199219 551.792969 405.199219 C 550.835938 405.199219 550.03125 404.871094 549.382812 404.242188 " clip-rule="nonzero"/></clipPath><clipPath id="8f6e33e62b"><path d="M 0.324219 0.402344 L 7.28125 0.402344 L 7.28125 51.382812 L 0.324219 51.382812 Z M 0.324219 0.402344 " clip-rule="nonzero"/></clipPath><clipPath id="71bbf74218"><path d="M 0.945312 11.480469 L 6.664062 11.480469 L 6.664062 51.296875 L 0.945312 51.296875 Z M 1.402344 6.242188 C 0.75 5.589844 0.425781 4.804688 0.425781 3.847656 C 0.425781 2.890625 0.75 2.109375 1.402344 1.457031 C 2.054688 0.804688 2.859375 0.5 3.792969 0.5 C 4.730469 0.5 5.554688 0.824219 6.207031 1.457031 C 6.859375 2.085938 7.1875 2.890625 7.1875 3.847656 C 7.1875 4.804688 6.859375 5.589844 6.207031 6.242188 C 5.554688 6.894531 4.75 7.199219 3.792969 7.199219 C 2.835938 7.199219 2.03125 6.871094 1.382812 6.242188 " clip-rule="nonzero"/></clipPath><clipPath id="265adadd9c"><rect x="0" width="8" y="0" height="52"/></clipPath><clipPath id="c4d0dc641d"><path d="M 563 409 L 594.050781 409 L 594.050781 462.257812 L 563 462.257812 Z M 563 409 " clip-rule="nonzero"/></clipPath><clipPath id="dbc25a03aa"><path d="M 572.628906 460.800781 L 573.824219 458.019531 C 574.976562 458.671875 576.257812 458.996094 577.714844 458.996094 C 579.847656 458.996094 580.933594 458.234375 580.933594 456.714844 C 580.933594 456.039062 580.671875 455.496094 580.128906 455.082031 C 579.585938 454.667969 578.78125 454.496094 577.671875 454.496094 L 576.128906 454.496094 L 577.5625 448.929688 L 580.714844 448.929688 L 579.867188 452.167969 C 581.476562 452.320312 582.695312 452.820312 583.566406 453.667969 C 584.433594 454.515625 584.847656 455.582031 584.847656 456.886719 C 584.847656 458.472656 584.195312 459.734375 582.890625 460.671875 C 581.585938 461.605469 579.867188 462.0625 577.738281 462.0625 C 575.757812 462.0625 574.039062 461.648438 572.628906 460.800781 M 569.667969 448.363281 C 566.863281 447.425781 564.644531 446.230469 563.039062 444.753906 L 565.167969 440.316406 C 566.691406 441.6875 568.648438 442.796875 571.039062 443.644531 C 573.433594 444.492188 575.890625 444.925781 578.410156 444.925781 C 581.738281 444.925781 584.21875 444.363281 585.871094 443.253906 C 587.523438 442.144531 588.328125 440.644531 588.328125 438.792969 C 588.328125 437.425781 587.871094 436.316406 586.980469 435.46875 C 586.085938 434.621094 584.980469 433.96875 583.652344 433.511719 C 582.324219 433.054688 580.476562 432.554688 578.0625 431.964844 C 575.039062 431.25 572.605469 430.53125 570.757812 429.8125 C 568.910156 429.097656 567.320312 427.988281 565.996094 426.488281 C 564.667969 424.984375 564.015625 422.964844 564.015625 420.417969 C 564.015625 418.289062 564.582031 416.375 565.710938 414.679688 C 566.84375 412.980469 568.539062 411.613281 570.84375 410.589844 C 573.148438 409.566406 575.976562 409.046875 579.390625 409.046875 C 581.761719 409.046875 584.085938 409.351562 586.390625 409.960938 C 588.695312 410.570312 590.65625 411.4375 592.308594 412.570312 L 590.414062 417.113281 C 588.742188 416.046875 586.9375 415.242188 585.023438 414.699219 C 583.109375 414.15625 581.238281 413.875 579.410156 413.875 C 576.171875 413.875 573.734375 414.460938 572.105469 415.636719 C 570.472656 416.808594 569.667969 418.332031 569.667969 420.179688 C 569.667969 421.550781 570.125 422.660156 571.039062 423.507812 C 571.953125 424.355469 573.105469 425.03125 574.453125 425.484375 C 575.800781 425.941406 577.648438 426.464844 580 426.988281 C 583.023438 427.703125 585.433594 428.421875 587.285156 429.140625 C 589.132812 429.855469 590.699219 430.964844 592.023438 432.445312 C 593.351562 433.921875 594.003906 435.925781 594.003906 438.425781 C 594.003906 440.511719 593.4375 442.425781 592.285156 444.144531 C 591.132812 445.863281 589.394531 447.230469 587.066406 448.230469 C 584.738281 449.234375 581.867188 449.734375 578.476562 449.734375 C 575.453125 449.734375 572.539062 449.277344 569.734375 448.339844 " clip-rule="nonzero"/></clipPath><clipPath id="a9ff628fa0"><path d="M 0 0 L 31.050781 0 L 31.050781 53.121094 L 0 53.121094 Z M 0 0 " clip-rule="nonzero"/></clipPath><clipPath id="4c98c0c9a1"><path d="M 9.628906 51.800781 L 10.824219 49.019531 C 11.976562 49.671875 13.257812 49.996094 14.714844 49.996094 C 16.847656 49.996094 17.933594 49.234375 17.933594 47.714844 C 17.933594 47.039062 17.671875 46.496094 17.128906 46.082031 C 16.585938 45.667969 15.78125 45.496094 14.671875 45.496094 L 13.128906 45.496094 L 14.5625 39.929688 L 17.714844 39.929688 L 16.867188 43.167969 C 18.476562 43.320312 19.695312 43.820312 20.566406 44.667969 C 21.433594 45.515625 21.847656 46.582031 21.847656 47.886719 C 21.847656 49.472656 21.195312 50.734375 19.890625 51.671875 C 18.585938 52.605469 16.867188 53.0625 14.738281 53.0625 C 12.757812 53.0625 11.039062 52.648438 9.628906 51.800781 M 6.667969 39.363281 C 3.863281 38.425781 1.644531 37.230469 0.0390625 35.753906 L 2.167969 31.316406 C 3.691406 32.6875 5.648438 33.796875 8.039062 34.644531 C 10.433594 35.492188 12.890625 35.925781 15.410156 35.925781 C 18.738281 35.925781 21.21875 35.363281 22.871094 34.253906 C 24.523438 33.144531 25.328125 31.644531 25.328125 29.792969 C 25.328125 28.425781 24.871094 27.316406 23.980469 26.46875 C 23.085938 25.621094 21.980469 24.96875 20.652344 24.511719 C 19.324219 24.054688 17.476562 23.554688 15.0625 22.964844 C 12.039062 22.25 9.605469 21.53125 7.757812 20.8125 C 5.910156 20.097656 4.320312 18.988281 2.996094 17.488281 C 1.667969 15.984375 1.015625 13.964844 1.015625 11.417969 C 1.015625 9.289062 1.582031 7.375 2.710938 5.679688 C 3.84375 3.980469 5.539062 2.613281 7.84375 1.589844 C 10.148438 0.566406 12.976562 0.046875 16.390625 0.046875 C 18.761719 0.046875 21.085938 0.351562 23.390625 0.960938 C 25.695312 1.570312 27.65625 2.4375 29.308594 3.570312 L 27.414062 8.113281 C 25.742188 7.046875 23.9375 6.242188 22.023438 5.699219 C 20.109375 5.15625 18.238281 4.875 16.410156 4.875 C 13.171875 4.875 10.734375 5.460938 9.105469 6.636719 C 7.472656 7.808594 6.667969 9.332031 6.667969 11.179688 C 6.667969 12.550781 7.125 13.660156 8.039062 14.507812 C 8.953125 15.355469 10.105469 16.03125 11.453125 16.484375 C 12.800781 16.941406 14.648438 17.464844 17 17.988281 C 20.023438 18.703125 22.433594 19.421875 24.285156 20.140625 C 26.132812 20.855469 27.699219 21.964844 29.023438 23.445312 C 30.351562 24.921875 31.003906 26.925781 31.003906 29.425781 C 31.003906 31.511719 30.4375 33.425781 29.285156 35.144531 C 28.132812 36.863281 26.394531 38.230469 24.066406 39.230469 C 21.738281 40.234375 18.867188 40.734375 15.476562 40.734375 C 12.453125 40.734375 9.539062 40.277344 6.734375 39.339844 " clip-rule="nonzero"/></clipPath><clipPath id="0f58a94d13"><rect x="0" width="32" y="0" height="54"/></clipPath><clipPath id="a6783e50e4"><path d="M 586.511719 6.289062 L 735 6.289062 L 735 376.253906 L 586.511719 376.253906 Z M 586.511719 6.289062 " clip-rule="nonzero"/></clipPath><clipPath id="a4f207bcd4"><path d="M 662.296875 212.613281 L 734.972656 212.613281 L 734.972656 300.621094 C 734.972656 350.769531 710.203125 375.90625 660.644531 376.035156 C 611.214844 376.035156 586.511719 350.898438 586.511719 300.621094 L 586.511719 81.53125 C 586.511719 31.363281 611.214844 6.289062 660.644531 6.289062 C 710.179688 6.289062 734.972656 31.363281 734.972656 81.53125 L 734.972656 129.71875 L 683.28125 129.71875 L 683.28125 81.53125 C 683.28125 65.460938 675.800781 57.371094 660.816406 57.238281 L 660.449219 57.238281 C 645.59375 57.238281 638.179688 65.328125 638.179688 81.53125 L 638.179688 300.621094 C 638.179688 316.820312 645.660156 324.910156 660.644531 324.910156 C 675.734375 324.910156 683.28125 316.820312 683.28125 300.621094 L 683.28125 263.738281 L 662.296875 263.738281 Z M 662.296875 212.613281 " clip-rule="nonzero"/></clipPath><clipPath id="dac71b33f7"><path d="M 0.511719 0.289062 L 149 0.289062 L 149 370.199219 L 0.511719 370.199219 Z M 0.511719 0.289062 " clip-rule="nonzero"/></clipPath><clipPath id="98430e6418"><path d="M 76.296875 206.613281 L 148.972656 206.613281 L 148.972656 294.621094 C 148.972656 344.769531 124.203125 369.90625 74.644531 370.035156 C 25.214844 370.035156 0.511719 344.898438 0.511719 294.621094 L 0.511719 75.53125 C 0.511719 25.363281 25.214844 0.289062 74.644531 0.289062 C 124.179688 0.289062 148.972656 25.363281 148.972656 75.53125 L 148.972656 123.71875 L 97.28125 123.71875 L 97.28125 75.53125 C 97.28125 59.460938 89.800781 51.371094 74.816406 51.238281 L 74.449219 51.238281 C 59.59375 51.238281 52.179688 59.328125 52.179688 75.53125 L 52.179688 294.621094 C 52.179688 310.820312 59.660156 318.910156 74.644531 318.910156 C 89.734375 318.910156 97.28125 310.820312 97.28125 294.621094 L 97.28125 257.738281 L 76.296875 257.738281 Z M 76.296875 206.613281 " clip-rule="nonzero"/></clipPath><clipPath id="3089d66f6b"><rect x="0" width="149" y="0" height="371"/></clipPath><clipPath id="bc8282b039"><path d="M 779.695312 11.953125 L 831.363281 11.953125 L 831.363281 62.902344 L 779.695312 62.902344 Z M 779.695312 11.953125 " clip-rule="nonzero"/></clipPath><clipPath id="4b3ea1486a"><path d="M 0.695312 0.953125 L 52.363281 0.953125 L 52.363281 51.902344 L 0.695312 51.902344 Z M 0.695312 0.953125 " clip-rule="nonzero"/></clipPath><clipPath id="c438c573d5"><rect x="0" width="53" y="0" height="52"/></clipPath><clipPath id="a6e7b516f8"><path d="M 617.195312 398.464844 L 624.039062 398.464844 L 624.039062 449.511719 L 617.195312 449.511719 Z M 617.195312 398.464844 " clip-rule="nonzero"/></clipPath><clipPath id="4fe891b664"><path d="M 617.753906 409.480469 L 623.492188 409.480469 L 623.492188 449.296875 L 617.753906 449.296875 Z M 618.210938 404.242188 C 617.558594 403.589844 617.230469 402.804688 617.230469 401.847656 C 617.230469 400.890625 617.558594 400.109375 618.210938 399.457031 C 618.863281 398.804688 619.667969 398.5 620.625 398.5 C 621.578125 398.5 622.382812 398.824219 623.035156 399.457031 C 623.6875 400.085938 624.015625 400.890625 624.015625 401.847656 C 624.015625 402.804688 623.6875 403.589844 623.035156 404.242188 C 622.382812 404.894531 621.578125 405.199219 620.625 405.199219 C 619.667969 405.199219 618.863281 404.871094 618.210938 404.242188 " clip-rule="nonzero"/></clipPath><clipPath id="b356d3c709"><path d="M 0.199219 0.464844 L 7.039062 0.464844 L 7.039062 51.398438 L 0.199219 51.398438 Z M 0.199219 0.464844 " clip-rule="nonzero"/></clipPath><clipPath id="0c4bbedfb3"><path d="M 0.753906 11.480469 L 6.492188 11.480469 L 6.492188 51.296875 L 0.753906 51.296875 Z M 1.210938 6.242188 C 0.558594 5.589844 0.230469 4.804688 0.230469 3.847656 C 0.230469 2.890625 0.558594 2.109375 1.210938 1.457031 C 1.863281 0.804688 2.667969 0.5 3.625 0.5 C 4.578125 0.5 5.382812 0.824219 6.035156 1.457031 C 6.6875 2.085938 7.015625 2.890625 7.015625 3.847656 C 7.015625 4.804688 6.6875 5.589844 6.035156 6.242188 C 5.382812 6.894531 4.578125 7.199219 3.625 7.199219 C 2.667969 7.199219 1.863281 6.871094 1.210938 6.242188 " clip-rule="nonzero"/></clipPath><clipPath id="bce4daeef6"><rect x="0" width="8" y="0" height="52"/></clipPath><clipPath id="af6e5b9ac9"><path d="M 635.445312 409.300781 L 670.238281 409.300781 L 670.238281 449.511719 L 635.445312 449.511719 Z M 635.445312 409.300781 " clip-rule="nonzero"/></clipPath><clipPath id="872f180ae8"><path d="M 670.050781 409.480469 L 670.050781 449.296875 L 665.332031 449.296875 L 641.261719 419.613281 L 641.261719 449.296875 L 635.519531 449.296875 L 635.519531 409.480469 L 640.214844 409.480469 L 664.3125 439.1875 L 664.3125 409.480469 Z M 670.050781 409.480469 " clip-rule="nonzero"/></clipPath><clipPath id="db8a9cbd42"><path d="M 0.445312 0.320312 L 35.238281 0.320312 L 35.238281 40.398438 L 0.445312 40.398438 Z M 0.445312 0.320312 " clip-rule="nonzero"/></clipPath><clipPath id="493f734f06"><path d="M 35.050781 0.480469 L 35.050781 40.296875 L 30.332031 40.296875 L 6.261719 10.613281 L 6.261719 40.296875 L 0.519531 40.296875 L 0.519531 0.480469 L 5.214844 0.480469 L 29.3125 30.1875 L 29.3125 0.480469 Z M 35.050781 0.480469 " clip-rule="nonzero"/></clipPath><clipPath id="154195228c"><rect x="0" width="36" y="0" height="41"/></clipPath><clipPath id="238de735f5"><path d="M 678.222656 409.015625 L 709.59375 409.015625 L 709.59375 449.796875 L 678.222656 449.796875 Z M 678.222656 409.015625 " clip-rule="nonzero"/></clipPath><clipPath id="7bce84cde3"><path d="M 685.035156 448.363281 C 682.230469 447.429688 680.011719 446.230469 678.402344 444.753906 L 680.535156 440.316406 C 682.054688 441.6875 684.011719 442.796875 686.40625 443.644531 C 688.796875 444.492188 691.253906 444.925781 693.777344 444.925781 C 697.105469 444.925781 699.582031 444.363281 701.234375 443.253906 C 702.886719 442.144531 703.691406 440.644531 703.691406 438.796875 C 703.691406 437.425781 703.238281 436.316406 702.34375 435.46875 C 701.453125 434.621094 700.34375 433.96875 699.019531 433.511719 C 697.691406 433.054688 695.84375 432.554688 693.429688 431.96875 C 690.40625 431.25 687.972656 430.53125 686.121094 429.8125 C 684.273438 429.097656 682.6875 427.988281 681.359375 426.488281 C 680.035156 424.988281 679.382812 422.964844 679.382812 420.417969 C 679.382812 418.289062 679.945312 416.375 681.078125 414.679688 C 682.207031 412.984375 683.925781 411.613281 686.210938 410.589844 C 688.492188 409.570312 691.339844 409.046875 694.753906 409.046875 C 697.125 409.046875 699.453125 409.351562 701.757812 409.960938 C 704.0625 410.570312 706.019531 411.4375 707.652344 412.570312 L 705.757812 417.113281 C 704.085938 416.046875 702.28125 415.246094 700.367188 414.699219 C 698.453125 414.15625 696.582031 413.875 694.753906 413.875 C 691.515625 413.875 689.078125 414.460938 687.449219 415.636719 C 685.816406 416.808594 685.011719 418.332031 685.011719 420.179688 C 685.011719 421.550781 685.46875 422.660156 686.382812 423.507812 C 687.296875 424.355469 688.449219 425.03125 689.796875 425.507812 C 691.144531 425.988281 692.996094 426.488281 695.34375 427.007812 C 698.367188 427.726562 700.800781 428.445312 702.628906 429.160156 C 704.453125 429.878906 706.042969 430.988281 707.367188 432.46875 C 708.695312 433.945312 709.347656 435.945312 709.347656 438.445312 C 709.347656 440.535156 708.78125 442.449219 707.628906 444.167969 C 706.476562 445.882812 704.738281 447.253906 702.410156 448.253906 C 700.082031 449.253906 697.210938 449.753906 693.796875 449.753906 C 690.777344 449.753906 687.863281 449.296875 685.058594 448.363281 " clip-rule="nonzero"/></clipPath><clipPath id="699179df48"><path d="M 0.398438 0.015625 L 31.359375 0.015625 L 31.359375 40.796875 L 0.398438 40.796875 Z M 0.398438 0.015625 " clip-rule="nonzero"/></clipPath><clipPath id="3d78d0886a"><path d="M 7.035156 39.363281 C 4.230469 38.429688 2.011719 37.230469 0.402344 35.753906 L 2.535156 31.316406 C 4.054688 32.6875 6.011719 33.796875 8.40625 34.644531 C 10.796875 35.492188 13.253906 35.925781 15.777344 35.925781 C 19.105469 35.925781 21.582031 35.363281 23.234375 34.253906 C 24.886719 33.144531 25.691406 31.644531 25.691406 29.796875 C 25.691406 28.425781 25.238281 27.316406 24.34375 26.46875 C 23.453125 25.621094 22.34375 24.96875 21.019531 24.511719 C 19.691406 24.054688 17.84375 23.554688 15.429688 22.96875 C 12.40625 22.25 9.972656 21.53125 8.121094 20.8125 C 6.273438 20.097656 4.6875 18.988281 3.359375 17.488281 C 2.035156 15.988281 1.382812 13.964844 1.382812 11.417969 C 1.382812 9.289062 1.945312 7.375 3.078125 5.679688 C 4.207031 3.984375 5.925781 2.613281 8.210938 1.589844 C 10.492188 0.570312 13.339844 0.046875 16.753906 0.046875 C 19.125 0.046875 21.453125 0.351562 23.757812 0.960938 C 26.0625 1.570312 28.019531 2.4375 29.652344 3.570312 L 27.757812 8.113281 C 26.085938 7.046875 24.28125 6.246094 22.367188 5.699219 C 20.453125 5.15625 18.582031 4.875 16.753906 4.875 C 13.515625 4.875 11.078125 5.460938 9.449219 6.636719 C 7.816406 7.808594 7.011719 9.332031 7.011719 11.179688 C 7.011719 12.550781 7.46875 13.660156 8.382812 14.507812 C 9.296875 15.355469 10.449219 16.03125 11.796875 16.507812 C 13.144531 16.988281 14.996094 17.488281 17.34375 18.007812 C 20.367188 18.726562 22.800781 19.445312 24.628906 20.160156 C 26.453125 20.878906 28.042969 21.988281 29.367188 23.46875 C 30.695312 24.945312 31.347656 26.945312 31.347656 29.445312 C 31.347656 31.535156 30.78125 33.449219 29.628906 35.167969 C 28.476562 36.882812 26.738281 38.253906 24.410156 39.253906 C 22.082031 40.253906 19.210938 40.753906 15.796875 40.753906 C 12.777344 40.753906 9.863281 40.296875 7.058594 39.363281 " clip-rule="nonzero"/></clipPath><clipPath id="56cce8bea1"><rect x="0" width="32" y="0" height="41"/></clipPath><clipPath id="1702717afb"><path d="M 711.589844 409.300781 L 753.796875 409.300781 L 753.796875 449.511719 L 711.589844 449.511719 Z M 711.589844 409.300781 " clip-rule="nonzero"/></clipPath><clipPath id="223785f2c9"><path d="M 741.269531 434.792969 L 732.617188 415.289062 L 723.960938 434.792969 Z M 743.269531 439.339844 L 721.9375 439.339844 L 717.523438 449.296875 L 711.609375 449.296875 L 729.789062 409.480469 L 735.464844 409.480469 L 753.710938 449.296875 L 747.683594 449.296875 Z M 743.269531 439.339844 " clip-rule="nonzero"/></clipPath><clipPath id="b9e6a4d94c"><path d="M 0.589844 0.320312 L 42.761719 0.320312 L 42.761719 40.398438 L 0.589844 40.398438 Z M 0.589844 0.320312 " clip-rule="nonzero"/></clipPath><clipPath id="e2600d24fc"><path d="M 30.269531 25.792969 L 21.617188 6.289062 L 12.960938 25.792969 Z M 32.269531 30.339844 L 10.9375 30.339844 L 6.523438 40.296875 L 0.609375 40.296875 L 18.789062 0.480469 L 24.464844 0.480469 L 42.710938 40.296875 L 36.683594 40.296875 Z M 32.269531 30.339844 " clip-rule="nonzero"/></clipPath><clipPath id="26da7b6022"><rect x="0" width="43" y="0" height="41"/></clipPath><clipPath id="8d8ef5ae61"><path d="M 759.5 409.300781 L 794.292969 409.300781 L 794.292969 449.511719 L 759.5 449.511719 Z M 759.5 409.300781 " clip-rule="nonzero"/></clipPath><clipPath id="5f7fd1c535"><path d="M 794.179688 409.480469 L 794.179688 449.296875 L 789.480469 449.296875 L 765.410156 419.613281 L 765.410156 449.296875 L 759.667969 449.296875 L 759.667969 409.480469 L 764.363281 409.480469 L 788.460938 439.1875 L 788.460938 409.480469 Z M 794.179688 409.480469 " clip-rule="nonzero"/></clipPath><clipPath id="90a734b83c"><path d="M 0.519531 0.320312 L 35.292969 0.320312 L 35.292969 40.398438 L 0.519531 40.398438 Z M 0.519531 0.320312 " clip-rule="nonzero"/></clipPath><clipPath id="7fbcbfd503"><path d="M 35.179688 0.480469 L 35.179688 40.296875 L 30.480469 40.296875 L 6.410156 10.613281 L 6.410156 40.296875 L 0.667969 40.296875 L 0.667969 0.480469 L 5.363281 0.480469 L 29.460938 30.1875 L 29.460938 0.480469 Z M 35.179688 0.480469 " clip-rule="nonzero"/></clipPath><clipPath id="8b64e86da2"><rect x="0" width="36" y="0" height="41"/></clipPath><clipPath id="50ca588813"><path d="M 806.226562 409.480469 L 811.96875 409.480469 L 811.96875 444.363281 L 806.226562 444.363281 Z M 806.226562 444.363281 L 833.691406 444.363281 L 833.691406 449.320312 L 806.226562 449.320312 Z M 806.226562 444.363281 " clip-rule="nonzero"/></clipPath><clipPath id="41761be6e4"><path d="M 0.226562 0.480469 L 5.96875 0.480469 L 5.96875 35.363281 L 0.226562 35.363281 Z M 0.226562 35.363281 L 27.691406 35.363281 L 27.691406 40.320312 L 0.226562 40.320312 Z M 0.226562 35.363281 " clip-rule="nonzero"/></clipPath><clipPath id="619e2d80a6"><rect x="0" width="28" y="0" height="41"/></clipPath><clipPath id="b802a49d47"><path d="M 834.214844 409.300781 L 876.707031 409.300781 L 876.707031 449.511719 L 834.214844 449.511719 Z M 834.214844 409.300781 " clip-rule="nonzero"/></clipPath><clipPath id="44fdfdd4fb"><path d="M 864.027344 434.792969 L 855.371094 415.289062 L 846.71875 434.792969 Z M 866.027344 439.339844 L 844.695312 439.339844 L 840.28125 449.296875 L 834.367188 449.296875 L 852.546875 409.480469 L 858.222656 409.480469 L 876.464844 449.296875 L 870.441406 449.296875 Z M 866.027344 439.339844 " clip-rule="nonzero"/></clipPath><clipPath id="dc4fcb8194"><path d="M 0.214844 0.320312 L 42.640625 0.320312 L 42.640625 40.398438 L 0.214844 40.398438 Z M 0.214844 0.320312 " clip-rule="nonzero"/></clipPath><clipPath id="0717c0dbf9"><path d="M 30.027344 25.792969 L 21.371094 6.289062 L 12.71875 25.792969 Z M 32.027344 30.339844 L 10.695312 30.339844 L 6.28125 40.296875 L 0.367188 40.296875 L 18.546875 0.480469 L 24.222656 0.480469 L 42.464844 40.296875 L 36.441406 40.296875 Z M 32.027344 30.339844 " clip-rule="nonzero"/></clipPath><clipPath id="a40d47a9af"><rect x="0" width="43" y="0" height="41"/></clipPath><clipPath id="c3ff5274e9"><path d="M 882.410156 409.300781 L 915.777344 409.300781 L 915.777344 449.511719 L 882.410156 449.511719 Z M 882.410156 409.300781 " clip-rule="nonzero"/></clipPath><clipPath id="12c6347fc8"><path d="M 906.234375 430.011719 C 908.148438 428.464844 909.105469 426.226562 909.105469 423.355469 C 909.105469 420.484375 908.148438 418.265625 906.234375 416.722656 C 904.324219 415.179688 901.5625 414.417969 897.929688 414.417969 L 888.1875 414.417969 L 888.1875 432.335938 L 897.929688 432.335938 C 901.5625 432.335938 904.324219 431.554688 906.234375 430.011719 M 909.28125 449.296875 L 900.625 437.078125 C 899.558594 437.164062 898.710938 437.1875 898.101562 437.1875 L 888.1875 437.1875 L 888.1875 449.296875 L 882.445312 449.296875 L 882.445312 409.480469 L 898.101562 409.480469 C 903.300781 409.480469 907.390625 410.722656 910.367188 413.179688 C 913.347656 415.636719 914.847656 419.027344 914.847656 423.355469 C 914.847656 426.421875 914.085938 429.054688 912.5625 431.207031 C 911.042969 433.359375 908.847656 434.945312 906.019531 435.925781 L 915.542969 449.296875 Z M 909.28125 449.296875 " clip-rule="nonzero"/></clipPath><clipPath id="2ee6b20206"><path d="M 0.410156 0.320312 L 33.761719 0.320312 L 33.761719 40.398438 L 0.410156 40.398438 Z M 0.410156 0.320312 " clip-rule="nonzero"/></clipPath><clipPath id="08e1d22b30"><path d="M 24.234375 21.011719 C 26.148438 19.464844 27.105469 17.226562 27.105469 14.355469 C 27.105469 11.484375 26.148438 9.265625 24.234375 7.722656 C 22.324219 6.179688 19.5625 5.417969 15.929688 5.417969 L 6.1875 5.417969 L 6.1875 23.335938 L 15.929688 23.335938 C 19.5625 23.335938 22.324219 22.554688 24.234375 21.011719 M 27.28125 40.296875 L 18.625 28.078125 C 17.558594 28.164062 16.710938 28.1875 16.101562 28.1875 L 6.1875 28.1875 L 6.1875 40.296875 L 0.445312 40.296875 L 0.445312 0.480469 L 16.101562 0.480469 C 21.300781 0.480469 25.390625 1.722656 28.367188 4.179688 C 31.347656 6.636719 32.847656 10.027344 32.847656 14.355469 C 32.847656 17.421875 32.085938 20.054688 30.5625 22.207031 C 29.042969 24.359375 26.847656 25.945312 24.019531 26.925781 L 33.542969 40.296875 Z M 27.28125 40.296875 " clip-rule="nonzero"/></clipPath><clipPath id="068d080507"><rect x="0" width="34" y="0" height="41"/></clipPath><clipPath id="7658066ba6"><path d="M 924.113281 409.480469 L 929.851562 409.480469 L 929.851562 449.296875 L 924.113281 449.296875 Z M 924.113281 409.480469 " clip-rule="nonzero"/></clipPath><clipPath id="e67b4226b5"><path d="M 0.113281 0.480469 L 5.851562 0.480469 L 5.851562 40.296875 L 0.113281 40.296875 Z M 0.113281 0.480469 " clip-rule="nonzero"/></clipPath><clipPath id="de507912f2"><rect x="0" width="6" y="0" height="41"/></clipPath><clipPath id="7031327c2d"><path d="M 779.695312 85.972656 L 831.363281 85.972656 L 831.363281 370.195312 L 779.695312 370.195312 Z M 779.695312 85.972656 " clip-rule="nonzero"/></clipPath><clipPath id="8055bea023"><path d="M 0.695312 0.972656 L 52.363281 0.972656 L 52.363281 285.195312 L 0.695312 285.195312 Z M 0.695312 0.972656 " clip-rule="nonzero"/></clipPath><clipPath id="65a79b9d07"><rect x="0" width="53" y="0" height="286"/></clipPath><clipPath id="c437f47d2a"><path d="M 863 11.015625 L 1041 11.015625 L 1041 370.980469 L 863 370.980469 Z M 863 11.015625 " clip-rule="nonzero"/></clipPath><clipPath id="dadc5730ec"><path d="M 951.882812 94.128906 L 915.371094 370.195312 L 863.332031 370.195312 L 916.652344 11.949219 L 987.5 11.949219 L 1040.628906 370.195312 L 988.394531 370.195312 Z M 951.882812 94.128906 " clip-rule="nonzero"/></clipPath><clipPath id="c6dd2b803f"><path d="M 0.199219 0.878906 L 177.800781 0.878906 L 177.800781 359.199219 L 0.199219 359.199219 Z M 0.199219 0.878906 " clip-rule="nonzero"/></clipPath><clipPath id="3093cdd7ee"><path d="M 88.882812 83.128906 L 52.371094 359.195312 L 0.332031 359.195312 L 53.652344 0.949219 L 124.5 0.949219 L 177.628906 359.195312 L 125.394531 359.195312 Z M 88.882812 83.128906 " clip-rule="nonzero"/></clipPath><clipPath id="a87099b7f3"><rect x="0" width="178" y="0" height="360"/></clipPath><clipPath id="e96338bf97"><path d="M 799.117188 327.769531 L 911.738281 327.769531 L 911.738281 370.195312 L 799.117188 370.195312 Z M 799.117188 327.769531 " clip-rule="nonzero"/></clipPath><clipPath id="9d0a877724"><path d="M 0.117188 0.769531 L 112.738281 0.769531 L 112.738281 43.195312 L 0.117188 43.195312 Z M 0.117188 0.769531 " clip-rule="nonzero"/></clipPath><clipPath id="6f61b3f80c"><rect x="0" width="113" y="0" height="44"/></clipPath><clipPath id="dd11c92b03"><path d="M 1071.664062 11.949219 L 1220.691406 11.949219 L 1220.691406 370.316406 L 1071.664062 370.316406 Z M 1071.664062 11.949219 " clip-rule="nonzero"/></clipPath><clipPath id="ec487d0b4a"><path d="M 1123.332031 62.902344 L 1123.332031 319.265625 L 1145.96875 319.265625 C 1160.953125 319.265625 1168.433594 311.175781 1168.433594 294.972656 L 1168.433594 87.363281 C 1168.433594 71.054688 1160.953125 62.902344 1145.96875 62.902344 Z M 1071.664062 11.949219 L 1151.277344 11.949219 C 1197.160156 12.082031 1220.125 37.21875 1220.125 87.363281 L 1220.125 294.972656 C 1220.125 345.011719 1196.074219 370.085938 1147.992188 370.195312 L 1071.664062 370.195312 Z M 1071.664062 11.949219 " clip-rule="nonzero"/></clipPath><clipPath id="b8311e2b51"><path d="M 0.664062 0.949219 L 149.320312 0.949219 L 149.320312 359.199219 L 0.664062 359.199219 Z M 0.664062 0.949219 " clip-rule="nonzero"/></clipPath><clipPath id="b45e694678"><path d="M 52.332031 51.902344 L 52.332031 308.265625 L 74.96875 308.265625 C 89.953125 308.265625 97.433594 300.175781 97.433594 283.972656 L 97.433594 76.363281 C 97.433594 60.054688 89.953125 51.902344 74.96875 51.902344 Z M 0.664062 0.949219 L 80.277344 0.949219 C 126.160156 1.082031 149.125 26.21875 149.125 76.363281 L 149.125 283.972656 C 149.125 334.011719 125.074219 359.085938 76.992188 359.195312 L 0.664062 359.195312 Z M 0.664062 0.949219 " clip-rule="nonzero"/></clipPath><clipPath id="75f5511a27"><rect x="0" width="150" y="0" height="360"/></clipPath><clipPath id="3ddc494002"><path d="M 957.285156 409.300781 L 996 409.300781 L 996 449.511719 L 957.285156 449.511719 Z M 957.285156 409.300781 " clip-rule="nonzero"/></clipPath><clipPath id="e8126b4a70"><path d="M 973.890625 444.363281 C 977.132812 444.363281 980 443.730469 982.457031 442.492188 C 984.917969 441.253906 986.828125 439.492188 988.15625 437.230469 C 989.484375 434.96875 990.15625 432.359375 990.15625 429.402344 C 990.15625 426.441406 989.484375 423.832031 988.15625 421.570312 C 986.828125 419.3125 984.917969 417.550781 982.457031 416.308594 C 980 415.070312 977.132812 414.441406 973.890625 414.441406 L 963.0625 414.441406 L 963.0625 444.363281 Z M 957.320312 409.480469 L 974.238281 409.480469 C 978.480469 409.480469 982.242188 410.308594 985.523438 411.980469 C 988.808594 413.65625 991.351562 416.003906 993.179688 419.007812 C 995.007812 422.007812 995.898438 425.488281 995.898438 429.378906 C 995.898438 433.273438 994.984375 436.75 993.179688 439.773438 C 991.375 442.796875 988.808594 445.125 985.523438 446.796875 C 982.242188 448.472656 978.480469 449.296875 974.238281 449.296875 L 957.320312 449.296875 Z M 957.320312 409.480469 " clip-rule="nonzero"/></clipPath><clipPath id="4e6e88fb89"><path d="M 0.285156 0.320312 L 38.921875 0.320312 L 38.921875 40.398438 L 0.285156 40.398438 Z M 0.285156 0.320312 " clip-rule="nonzero"/></clipPath><clipPath id="cd194db687"><path d="M 16.890625 35.363281 C 20.132812 35.363281 23 34.730469 25.457031 33.492188 C 27.917969 32.253906 29.828125 30.492188 31.15625 28.230469 C 32.484375 25.96875 33.15625 23.359375 33.15625 20.402344 C 33.15625 17.441406 32.484375 14.832031 31.15625 12.570312 C 29.828125 10.3125 27.917969 8.550781 25.457031 7.308594 C 23 6.070312 20.132812 5.441406 16.890625 5.441406 L 6.0625 5.441406 L 6.0625 35.363281 Z M 0.320312 0.480469 L 17.238281 0.480469 C 21.480469 0.480469 25.242188 1.308594 28.523438 2.980469 C 31.808594 4.65625 34.351562 7.003906 36.179688 10.007812 C 38.007812 13.007812 38.898438 16.488281 38.898438 20.378906 C 38.898438 24.273438 37.984375 27.75 36.179688 30.773438 C 34.375 33.796875 31.808594 36.125 28.523438 37.796875 C 25.242188 39.472656 21.480469 40.296875 17.238281 40.296875 L 0.320312 40.296875 Z M 0.320312 0.480469 " clip-rule="nonzero"/></clipPath><clipPath id="0a4b3c68f1"><rect x="0" width="39" y="0" height="41"/></clipPath><clipPath id="d9229595ac"><path d="M 1004.625 409.300781 L 1033.996094 409.300781 L 1033.996094 449.511719 L 1004.625 449.511719 Z M 1004.625 409.300781 " clip-rule="nonzero"/></clipPath><clipPath id="510c4c90d3"><path d="M 1033.800781 444.363281 L 1033.800781 449.320312 L 1004.683594 449.320312 L 1004.683594 409.480469 L 1032.996094 409.480469 L 1032.996094 414.441406 L 1010.425781 414.441406 L 1010.425781 426.660156 L 1030.5625 426.660156 L 1030.5625 431.488281 L 1010.425781 431.488281 L 1010.425781 444.339844 Z M 1033.800781 444.363281 " clip-rule="nonzero"/></clipPath><clipPath id="43368bcaad"><path d="M 0.625 0.320312 L 29.839844 0.320312 L 29.839844 40.398438 L 0.625 40.398438 Z M 0.625 0.320312 " clip-rule="nonzero"/></clipPath><clipPath id="414c49e1ef"><path d="M 29.800781 35.363281 L 29.800781 40.320312 L 0.683594 40.320312 L 0.683594 0.480469 L 28.996094 0.480469 L 28.996094 5.441406 L 6.425781 5.441406 L 6.425781 17.660156 L 26.5625 17.660156 L 26.5625 22.488281 L 6.425781 22.488281 L 6.425781 35.339844 Z M 29.800781 35.363281 " clip-rule="nonzero"/></clipPath><clipPath id="267555e62d"><rect x="0" width="30" y="0" height="41"/></clipPath><clipPath id="309c93dda7"><path d="M 1043 409.300781 L 1076.488281 409.300781 L 1076.488281 449.511719 L 1043 449.511719 Z M 1043 409.300781 " clip-rule="nonzero"/></clipPath><clipPath id="f32e08f3c0"><path d="M 1066.898438 430.007812 C 1068.8125 428.464844 1069.769531 426.226562 1069.769531 423.355469 C 1069.769531 420.484375 1068.8125 418.265625 1066.898438 416.722656 C 1064.984375 415.179688 1062.222656 414.417969 1058.570312 414.417969 L 1048.828125 414.417969 L 1048.828125 432.335938 L 1058.570312 432.335938 C 1062.203125 432.335938 1064.984375 431.554688 1066.898438 430.007812 M 1069.941406 449.296875 L 1061.265625 437.078125 C 1060.199219 437.164062 1059.351562 437.1875 1058.742188 437.1875 L 1048.828125 437.1875 L 1048.828125 449.296875 L 1043.109375 449.296875 L 1043.109375 409.480469 L 1058.765625 409.480469 C 1063.960938 409.480469 1068.050781 410.722656 1071.03125 413.179688 C 1074.007812 415.636719 1075.511719 419.027344 1075.511719 423.355469 C 1075.511719 426.421875 1074.75 429.054688 1073.226562 431.207031 C 1071.703125 433.359375 1069.507812 434.945312 1066.679688 435.925781 L 1076.207031 449.296875 Z M 1069.941406 449.296875 " clip-rule="nonzero"/></clipPath><clipPath id="53b1c4f4ff"><path d="M 0 0.320312 L 33.320312 0.320312 L 33.320312 40.398438 L 0 40.398438 Z M 0 0.320312 " clip-rule="nonzero"/></clipPath><clipPath id="3e1faada6c"><path d="M 23.898438 21.007812 C 25.8125 19.464844 26.769531 17.226562 26.769531 14.355469 C 26.769531 11.484375 25.8125 9.265625 23.898438 7.722656 C 21.984375 6.179688 19.222656 5.417969 15.570312 5.417969 L 5.828125 5.417969 L 5.828125 23.335938 L 15.570312 23.335938 C 19.203125 23.335938 21.984375 22.554688 23.898438 21.007812 M 26.941406 40.296875 L 18.265625 28.078125 C 17.199219 28.164062 16.351562 28.1875 15.742188 28.1875 L 5.828125 28.1875 L 5.828125 40.296875 L 0.109375 40.296875 L 0.109375 0.480469 L 15.765625 0.480469 C 20.960938 0.480469 25.050781 1.722656 28.03125 4.179688 C 31.007812 6.636719 32.511719 10.027344 32.511719 14.355469 C 32.511719 17.421875 31.75 20.054688 30.226562 22.207031 C 28.703125 24.359375 26.507812 25.945312 23.679688 26.925781 L 33.207031 40.296875 Z M 26.941406 40.296875 " clip-rule="nonzero"/></clipPath><clipPath id="025912005e"><rect x="0" width="34" y="0" height="41"/></clipPath><clipPath id="96c6bb8667"><path d="M 1084.757812 409.300781 L 1119.550781 409.300781 L 1119.550781 449.511719 L 1084.757812 449.511719 Z M 1084.757812 409.300781 " clip-rule="nonzero"/></clipPath><clipPath id="3b4bc24652"><path d="M 1119.304688 409.480469 L 1119.304688 449.296875 L 1114.609375 449.296875 L 1090.515625 419.613281 L 1090.515625 449.296875 L 1084.796875 449.296875 L 1084.796875 409.480469 L 1089.492188 409.480469 L 1113.566406 439.1875 L 1113.566406 409.480469 Z M 1119.304688 409.480469 " clip-rule="nonzero"/></clipPath><clipPath id="516954284a"><path d="M 0.757812 0.320312 L 35.519531 0.320312 L 35.519531 40.398438 L 0.757812 40.398438 Z M 0.757812 0.320312 " clip-rule="nonzero"/></clipPath><clipPath id="2d7aaff269"><path d="M 35.304688 0.480469 L 35.304688 40.296875 L 30.609375 40.296875 L 6.515625 10.613281 L 6.515625 40.296875 L 0.796875 40.296875 L 0.796875 0.480469 L 5.492188 0.480469 L 29.566406 30.1875 L 29.566406 0.480469 Z M 35.304688 0.480469 " clip-rule="nonzero"/></clipPath><clipPath id="d11dd28ecd"><rect x="0" width="36" y="0" height="41"/></clipPath><clipPath id="5420f3816b"><path d="M 1131.242188 409.300781 L 1160.617188 409.300781 L 1160.617188 449.511719 L 1131.242188 449.511719 Z M 1131.242188 409.300781 " clip-rule="nonzero"/></clipPath><clipPath id="b2777ab5ab"><path d="M 1160.472656 444.363281 L 1160.472656 449.320312 L 1131.355469 449.320312 L 1131.355469 409.480469 L 1159.667969 409.480469 L 1159.667969 414.441406 L 1137.074219 414.441406 L 1137.074219 426.660156 L 1157.210938 426.660156 L 1157.210938 431.488281 L 1137.074219 431.488281 L 1137.074219 444.339844 Z M 1160.472656 444.363281 " clip-rule="nonzero"/></clipPath><clipPath id="c502edf73d"><path d="M 0.28125 0.320312 L 29.558594 0.320312 L 29.558594 40.398438 L 0.28125 40.398438 Z M 0.28125 0.320312 " clip-rule="nonzero"/></clipPath><clipPath id="844c91c7c8"><path d="M 29.472656 35.363281 L 29.472656 40.320312 L 0.355469 40.320312 L 0.355469 0.480469 L 28.667969 0.480469 L 28.667969 5.441406 L 6.074219 5.441406 L 6.074219 17.660156 L 26.210938 17.660156 L 26.210938 22.488281 L 6.074219 22.488281 L 6.074219 35.339844 Z M 29.472656 35.363281 " clip-rule="nonzero"/></clipPath><clipPath id="3190c0fedd"><rect x="0" width="30" y="0" height="41"/></clipPath><clipPath id="5ff02fa2e9"><path d="M 1166.035156 398.75 L 1203.394531 398.75 L 1203.394531 449.796875 L 1166.035156 449.796875 Z M 1166.035156 398.75 " clip-rule="nonzero"/></clipPath><clipPath id="4b4644c79f"><path d="M 1180.523438 404.480469 C 1178.78125 403.089844 1177.867188 401.195312 1177.804688 398.847656 L 1181.523438 398.847656 C 1181.566406 400.21875 1182.109375 401.304688 1183.152344 402.152344 C 1184.195312 403 1185.523438 403.390625 1187.089844 403.390625 C 1188.65625 403.390625 1189.960938 402.980469 1191.023438 402.152344 C 1192.089844 401.328125 1192.613281 400.21875 1192.65625 398.847656 L 1196.375 398.847656 C 1196.308594 401.195312 1195.394531 403.089844 1193.65625 404.480469 C 1191.917969 405.871094 1189.71875 406.589844 1187.089844 406.589844 C 1184.457031 406.589844 1182.261719 405.894531 1180.523438 404.480469 M 1197.394531 429.160156 L 1202.898438 429.160156 L 1202.898438 444.6875 C 1200.917969 446.320312 1198.59375 447.582031 1195.960938 448.449219 C 1193.328125 449.320312 1190.566406 449.753906 1187.699219 449.753906 C 1183.652344 449.753906 1180 448.886719 1176.738281 447.101562 C 1173.476562 445.320312 1170.929688 442.90625 1169.082031 439.816406 C 1167.234375 436.730469 1166.300781 433.25 1166.300781 429.378906 C 1166.300781 425.507812 1167.234375 422.027344 1169.082031 418.917969 C 1170.929688 415.808594 1173.496094 413.375 1176.757812 411.632812 C 1180.019531 409.894531 1183.71875 409.023438 1187.804688 409.023438 C 1191.023438 409.023438 1193.9375 409.546875 1196.546875 410.589844 C 1199.15625 411.632812 1201.398438 413.15625 1203.222656 415.179688 L 1199.65625 418.703125 C 1196.441406 415.636719 1192.570312 414.089844 1188.023438 414.089844 C 1184.957031 414.089844 1182.21875 414.742188 1179.804688 416.046875 C 1177.390625 417.351562 1175.476562 419.179688 1174.105469 421.507812 C 1172.738281 423.832031 1172.039062 426.464844 1172.039062 429.378906 C 1172.039062 432.269531 1172.738281 434.878906 1174.105469 437.207031 C 1175.476562 439.535156 1177.390625 441.359375 1179.804688 442.6875 C 1182.21875 444.015625 1184.957031 444.6875 1187.980469 444.6875 C 1191.570312 444.6875 1194.722656 443.839844 1197.394531 442.121094 Z M 1197.394531 429.160156 " clip-rule="nonzero"/></clipPath><clipPath id="bc17f3d3e8"><path d="M 0.078125 0.761719 L 37.28125 0.761719 L 37.28125 51.796875 L 0.078125 51.796875 Z M 0.078125 0.761719 " clip-rule="nonzero"/></clipPath><clipPath id="d983efe328"><path d="M 14.523438 6.480469 C 12.78125 5.089844 11.867188 3.195312 11.804688 0.847656 L 15.523438 0.847656 C 15.566406 2.21875 16.109375 3.304688 17.152344 4.152344 C 18.195312 5 19.523438 5.390625 21.089844 5.390625 C 22.65625 5.390625 23.960938 4.980469 25.023438 4.152344 C 26.089844 3.328125 26.613281 2.21875 26.65625 0.847656 L 30.375 0.847656 C 30.308594 3.195312 29.394531 5.089844 27.65625 6.480469 C 25.917969 7.871094 23.71875 8.589844 21.089844 8.589844 C 18.457031 8.589844 16.261719 7.894531 14.523438 6.480469 M 31.394531 31.160156 L 36.898438 31.160156 L 36.898438 46.6875 C 34.917969 48.320312 32.59375 49.582031 29.960938 50.449219 C 27.328125 51.320312 24.566406 51.753906 21.699219 51.753906 C 17.652344 51.753906 14 50.886719 10.738281 49.101562 C 7.476562 47.320312 4.929688 44.90625 3.082031 41.816406 C 1.234375 38.730469 0.300781 35.25 0.300781 31.378906 C 0.300781 27.507812 1.234375 24.027344 3.082031 20.917969 C 4.929688 17.808594 7.496094 15.375 10.757812 13.632812 C 14.019531 11.894531 17.71875 11.023438 21.804688 11.023438 C 25.023438 11.023438 27.9375 11.546875 30.546875 12.589844 C 33.15625 13.632812 35.398438 15.15625 37.222656 17.179688 L 33.65625 20.703125 C 30.441406 17.636719 26.570312 16.089844 22.023438 16.089844 C 18.957031 16.089844 16.21875 16.742188 13.804688 18.046875 C 11.390625 19.351562 9.476562 21.179688 8.105469 23.507812 C 6.738281 25.832031 6.039062 28.464844 6.039062 31.378906 C 6.039062 34.269531 6.738281 36.878906 8.105469 39.207031 C 9.476562 41.535156 11.390625 43.359375 13.804688 44.6875 C 16.21875 46.015625 18.957031 46.6875 21.980469 46.6875 C 25.570312 46.6875 28.722656 45.839844 31.394531 44.121094 Z M 31.394531 31.160156 " clip-rule="nonzero"/></clipPath><clipPath id="5e451440f8"><rect x="0" width="38" y="0" height="52"/></clipPath><clipPath id="8611e79480"><path d="M 1213.089844 398.464844 L 1220.21875 398.464844 L 1220.21875 449.511719 L 1213.089844 449.511719 Z M 1213.089844 398.464844 " clip-rule="nonzero"/></clipPath><clipPath id="dfc0c793f6"><path d="M 1213.859375 409.480469 L 1219.597656 409.480469 L 1219.597656 449.296875 L 1213.859375 449.296875 Z M 1214.316406 404.242188 C 1213.664062 403.589844 1213.335938 402.804688 1213.335938 401.847656 C 1213.335938 400.890625 1213.664062 400.109375 1214.316406 399.457031 C 1214.96875 398.804688 1215.773438 398.5 1216.730469 398.5 C 1217.683594 398.5 1218.488281 398.824219 1219.140625 399.457031 C 1219.792969 400.085938 1220.121094 400.890625 1220.121094 401.847656 C 1220.121094 402.804688 1219.792969 403.589844 1219.140625 404.242188 C 1218.488281 404.894531 1217.683594 405.199219 1216.730469 405.199219 C 1215.773438 405.199219 1214.96875 404.871094 1214.316406 404.242188 " clip-rule="nonzero"/></clipPath><clipPath id="71f43bf3f0"><path d="M 0.121094 0.464844 L 7.21875 0.464844 L 7.21875 51.398438 L 0.121094 51.398438 Z M 0.121094 0.464844 " clip-rule="nonzero"/></clipPath><clipPath id="a058d60896"><path d="M 0.859375 11.480469 L 6.597656 11.480469 L 6.597656 51.296875 L 0.859375 51.296875 Z M 1.316406 6.242188 C 0.664062 5.589844 0.335938 4.804688 0.335938 3.847656 C 0.335938 2.890625 0.664062 2.109375 1.316406 1.457031 C 1.96875 0.804688 2.773438 0.5 3.730469 0.5 C 4.683594 0.5 5.488281 0.824219 6.140625 1.457031 C 6.792969 2.085938 7.121094 2.890625 7.121094 3.847656 C 7.121094 4.804688 6.792969 5.589844 6.140625 6.242188 C 5.488281 6.894531 4.683594 7.199219 3.730469 7.199219 C 2.773438 7.199219 1.96875 6.871094 1.316406 6.242188 " clip-rule="nonzero"/></clipPath><clipPath id="a77146f51b"><rect x="0" width="8" y="0" height="52"/></clipPath><clipPath id="9a1fbb1f85"><rect x="0" width="1232" y="0" height="474"/></clipPath></defs><g transform="matrix(1, 0, 0, 1, 134, 513)"><g clip-path="url(#9a1fbb1f85)"><g clip-path="url(#7d89d8685c)"><g clip-path="url(#13042daee3)"><g transform="matrix(1, 0, 0, 1, 11, 11)"><g clip-path="url(#3a2763a763)"><g clip-path="url(#c85134c78f)"><g clip-path="url(#e44dc14439)"><path fill="#1a3863" d="M 0.886719 0.949219 L 149.335938 0.949219 L 149.335938 359.316406 L 0.886719 359.316406 Z M 0.886719 0.949219 " fill-opacity="1" fill-rule="nonzero"/></g></g></g></g></g></g><g clip-path="url(#033939a722)"><g clip-path="url(#051de1b0a2)"><g transform="matrix(1, 0, 0, 1, 11, 409)"><g clip-path="url(#769979723e)"><g clip-path="url(#755e7ad8f9)"><g clip-path="url(#abf36ae7a7)"><rect x="-691" width="2592" fill="#1a3863" y="-1467.999976" height="2591.999885" fill-opacity="1"/></g></g></g></g></g></g><g clip-path="url(#b199647af1)"><g clip-path="url(#ef16a24b9a)"><g transform="matrix(1, 0, 0, 1, 49, 409)"><g clip-path="url(#36dd048f3d)"><g clip-path="url(#ca33bfa777)"><g clip-path="url(#af6fcfc761)"><rect x="-729" width="2592" fill="#1a3863" y="-1467.999976" height="2591.999885" fill-opacity="1"/></g></g></g></g></g></g><g clip-path="url(#20e0b629fe)"><g clip-path="url(#7f2c109c98)"><g transform="matrix(1, 0, 0, 1, 97, 409)"><g clip-path="url(#9ba513f598)"><g clip-path="url(#9e27719b6c)"><g clip-path="url(#5766868e2b)"><rect x="-777" width="2592" fill="#1a3863" y="-1467.999976" height="2591.999885" fill-opacity="1"/></g></g></g></g></g></g><g clip-path="url(#9d79ba04f0)"><g clip-path="url(#1371545f68)"><g transform="matrix(1, 0, 0, 1, 143, 409)"><g clip-path="url(#cd7f55d13b)"><g clip-path="url(#1e0ff5ccde)"><g clip-path="url(#305bf4a94c)"><rect x="-823" width="2592" fill="#1a3863" y="-1467.999976" height="2591.999885" fill-opacity="1"/></g></g></g></g></g></g><g clip-path="url(#3ac75f932f)"><g transform="matrix(1, 0, 0, 1, 191, 409)"><g clip-path="url(#824e490d61)"><g clip-path="url(#bb73ed1a1b)"><rect x="-871" width="2592" fill="#1a3863" y="-1467.999976" height="2591.999885" fill-opacity="1"/></g></g></g></g><g clip-path="url(#b696940836)"><g clip-path="url(#24c33a3d62)"><g transform="matrix(1, 0, 0, 1, 208, 409)"><g clip-path="url(#c36573c05d)"><g clip-path="url(#565be67917)"><g clip-path="url(#e7a5004c2a)"><rect x="-888" width="2592" fill="#1a3863" y="-1467.999976" height="2591.999885" fill-opacity="1"/></g></g></g></g></g></g><g clip-path="url(#ac67f4b70f)"><g clip-path="url(#c36f4fc612)"><g transform="matrix(1, 0, 0, 1, 250, 409)"><g clip-path="url(#7429e02540)"><g clip-path="url(#c4c57004fb)"><g clip-path="url(#9e8374bd32)"><rect x="-930" width="2592" fill="#1a3863" y="-1467.999976" height="2591.999885" fill-opacity="1"/></g></g></g></g></g></g><g clip-path="url(#0ccb9f266f)"><g clip-path="url(#e469e2d690)"><g transform="matrix(1, 0, 0, 1, 299, 409)"><g clip-path="url(#befff89d26)"><g clip-path="url(#27bca8801e)"><g clip-path="url(#19d2116a86)"><rect x="-979" width="2592" fill="#1a3863" y="-1467.999976" height="2591.999885" fill-opacity="1"/></g></g></g></g></g></g><g clip-path="url(#c16a20c858)"><g clip-path="url(#549cc09eaf)"><g transform="matrix(1, 0, 0, 1, 359, 409)"><g clip-path="url(#cca1f21c29)"><g clip-path="url(#cc60c66d2d)"><g clip-path="url(#1c42385b09)"><rect x="-1039" width="2592" fill="#1a3863" y="-1467.999976" height="2591.999885" fill-opacity="1"/></g></g></g></g></g></g><g clip-path="url(#30ae82d843)"><g clip-path="url(#ea6ffe22f3)"><g transform="matrix(1, 0, 0, 1, 407, 409)"><g clip-path="url(#43493965f9)"><g clip-path="url(#c3f80937b2)"><g clip-path="url(#a4724cb0b7)"><rect x="-1087" width="2592" fill="#1a3863" y="-1467.999976" height="2591.999885" fill-opacity="1"/></g></g></g></g></g></g><g clip-path="url(#e1e2277619)"><g clip-path="url(#c810aa47ad)"><g transform="matrix(1, 0, 0, 1, 445, 409)"><g clip-path="url(#1cda872702)"><g clip-path="url(#c4f25a7f2b)"><g clip-path="url(#d5c77ff040)"><rect x="-1125" width="2592" fill="#1a3863" y="-1467.999976" height="2591.999885" fill-opacity="1"/></g></g></g></g></g></g><g clip-path="url(#c547c20715)"><g clip-path="url(#026dd3b173)"><g transform="matrix(1, 0, 0, 1, 488, 409)"><g clip-path="url(#aad4dfc74a)"><g clip-path="url(#cdaaf6e548)"><g clip-path="url(#4cf19f3acf)"><rect x="-1168" width="2592" fill="#1a3863" y="-1467.999976" height="2591.999885" fill-opacity="1"/></g></g></g></g></g></g><g clip-path="url(#8ef5ac621c)"><g clip-path="url(#0b745e31bf)"><g transform="matrix(1, 0, 0, 1, 185, 11)"><g clip-path="url(#102b249eb0)"><g clip-path="url(#f9b841a7db)"><g clip-path="url(#c4779e1aff)"><rect x="-865" width="2592" fill="#1a3863" y="-1069.999976" height="2591.999885" fill-opacity="1"/></g></g></g></g></g></g><g clip-path="url(#cf2c618ef8)"><g clip-path="url(#a649c01b3f)"><g transform="matrix(1, 0, 0, 1, 394, 11)"><g clip-path="url(#dfdf6addc6)"><g clip-path="url(#c6ef153051)"><g clip-path="url(#28ee3fc13f)"><rect x="-1074" width="2592" fill="#1a3863" y="-1069.999976" height="2591.999885" fill-opacity="1"/></g></g></g></g></g></g><g clip-path="url(#6172ab26f2)"><g transform="matrix(1, 0, 0, 1, 311, 327)"><g clip-path="url(#2ebcdbadc8)"><g clip-path="url(#967ab873e7)"><rect x="-991" width="2592" fill="#1a3863" y="-1385.999976" height="2591.999885" fill-opacity="1"/></g></g></g></g><g clip-path="url(#9c7ea35c75)"><g clip-path="url(#cd5f711e13)"><g transform="matrix(1, 0, 0, 1, 548, 398)"><g clip-path="url(#265adadd9c)"><g clip-path="url(#8f6e33e62b)"><g clip-path="url(#71bbf74218)"><rect x="-1228" width="2592" fill="#1a3863" y="-1456.999976" height="2591.999885" fill-opacity="1"/></g></g></g></g></g></g><g clip-path="url(#c4d0dc641d)"><g clip-path="url(#dbc25a03aa)"><g transform="matrix(1, 0, 0, 1, 563, 409)"><g clip-path="url(#0f58a94d13)"><g clip-path="url(#a9ff628fa0)"><g clip-path="url(#4c98c0c9a1)"><rect x="-1243" width="2592" fill="#1a3863" y="-1467.999976" height="2591.999885" fill-opacity="1"/></g></g></g></g></g></g><g clip-path="url(#a6783e50e4)"><g clip-path="url(#a4f207bcd4)"><g transform="matrix(1, 0, 0, 1, 586, 6)"><g clip-path="url(#3089d66f6b)"><g clip-path="url(#dac71b33f7)"><g clip-path="url(#98430e6418)"><path fill="#1a3863" d="M 0.511719 0.289062 L 148.960938 0.289062 L 148.960938 370.253906 L 0.511719 370.253906 Z M 0.511719 0.289062 " fill-opacity="1" fill-rule="nonzero"/></g></g></g></g></g></g><g clip-path="url(#bc8282b039)"><g transform="matrix(1, 0, 0, 1, 779, 11)"><g clip-path="url(#c438c573d5)"><g clip-path="url(#4b3ea1486a)"><path fill="#1a3863" d="M 0.695312 0.953125 L 52.4375 0.953125 L 52.4375 51.894531 L 0.695312 51.894531 Z M 0.695312 0.953125 " fill-opacity="1" fill-rule="nonzero"/></g></g></g></g><g clip-path="url(#a6e7b516f8)"><g clip-path="url(#4fe891b664)"><g transform="matrix(1, 0, 0, 1, 617, 398)"><g clip-path="url(#bce4daeef6)"><g clip-path="url(#b356d3c709)"><g clip-path="url(#0c4bbedfb3)"><rect x="-1297" width="2592" fill="#1a3863" y="-1456.999976" height="2591.999885" fill-opacity="1"/></g></g></g></g></g></g><g clip-path="url(#af6e5b9ac9)"><g clip-path="url(#872f180ae8)"><g transform="matrix(1, 0, 0, 1, 635, 409)"><g clip-path="url(#154195228c)"><g clip-path="url(#db8a9cbd42)"><g clip-path="url(#493f734f06)"><rect x="-1315" width="2592" fill="#1a3863" y="-1467.999976" height="2591.999885" fill-opacity="1"/></g></g></g></g></g></g><g clip-path="url(#238de735f5)"><g clip-path="url(#7bce84cde3)"><g transform="matrix(1, 0, 0, 1, 678, 409)"><g clip-path="url(#56cce8bea1)"><g clip-path="url(#699179df48)"><g clip-path="url(#3d78d0886a)"><rect x="-1358" width="2592" fill="#1a3863" y="-1467.999976" height="2591.999885" fill-opacity="1"/></g></g></g></g></g></g><g clip-path="url(#1702717afb)"><g clip-path="url(#223785f2c9)"><g transform="matrix(1, 0, 0, 1, 711, 409)"><g clip-path="url(#26da7b6022)"><g clip-path="url(#b9e6a4d94c)"><g clip-path="url(#e2600d24fc)"><rect x="-1391" width="2592" fill="#1a3863" y="-1467.999976" height="2591.999885" fill-opacity="1"/></g></g></g></g></g></g><g clip-path="url(#8d8ef5ae61)"><g clip-path="url(#5f7fd1c535)"><g transform="matrix(1, 0, 0, 1, 759, 409)"><g clip-path="url(#8b64e86da2)"><g clip-path="url(#90a734b83c)"><g clip-path="url(#7fbcbfd503)"><rect x="-1439" width="2592" fill="#1a3863" y="-1467.999976" height="2591.999885" fill-opacity="1"/></g></g></g></g></g></g><g clip-path="url(#50ca588813)"><g transform="matrix(1, 0, 0, 1, 806, 409)"><g clip-path="url(#619e2d80a6)"><g clip-path="url(#41761be6e4)"><rect x="-1486" width="2592" fill="#1a3863" y="-1467.999976" height="2591.999885" fill-opacity="1"/></g></g></g></g><g clip-path="url(#b802a49d47)"><g clip-path="url(#44fdfdd4fb)"><g transform="matrix(1, 0, 0, 1, 834, 409)"><g clip-path="url(#a40d47a9af)"><g clip-path="url(#dc4fcb8194)"><g clip-path="url(#0717c0dbf9)"><rect x="-1514" width="2592" fill="#1a3863" y="-1467.999976" height="2591.999885" fill-opacity="1"/></g></g></g></g></g></g><g clip-path="url(#c3ff5274e9)"><g clip-path="url(#12c6347fc8)"><g transform="matrix(1, 0, 0, 1, 882, 409)"><g clip-path="url(#068d080507)"><g clip-path="url(#2ee6b20206)"><g clip-path="url(#08e1d22b30)"><rect x="-1562" width="2592" fill="#1a3863" y="-1467.999976" height="2591.999885" fill-opacity="1"/></g></g></g></g></g></g><g clip-path="url(#7658066ba6)"><g transform="matrix(1, 0, 0, 1, 924, 409)"><g clip-path="url(#de507912f2)"><g clip-path="url(#e67b4226b5)"><rect x="-1604" width="2592" fill="#1a3863" y="-1467.999976" height="2591.999885" fill-opacity="1"/></g></g></g></g><g clip-path="url(#7031327c2d)"><g transform="matrix(1, 0, 0, 1, 779, 85)"><g clip-path="url(#65a79b9d07)"><g clip-path="url(#8055bea023)"><rect x="-1459" width="2592" fill="#1a3863" y="-1143.999976" height="2591.999885" fill-opacity="1"/></g></g></g></g><g clip-path="url(#c437f47d2a)"><g clip-path="url(#dadc5730ec)"><g transform="matrix(1, 0, 0, 1, 863, 11)"><g clip-path="url(#a87099b7f3)"><g clip-path="url(#c6dd2b803f)"><g clip-path="url(#3093cdd7ee)"><rect x="-1543" width="2592" fill="#1a3863" y="-1069.999976" height="2591.999885" fill-opacity="1"/></g></g></g></g></g></g><g clip-path="url(#e96338bf97)"><g transform="matrix(1, 0, 0, 1, 799, 327)"><g clip-path="url(#6f61b3f80c)"><g clip-path="url(#9d0a877724)"><rect x="-1479" width="2592" fill="#1a3863" y="-1385.999976" height="2591.999885" fill-opacity="1"/></g></g></g></g><g clip-path="url(#dd11c92b03)"><g clip-path="url(#ec487d0b4a)"><g transform="matrix(1, 0, 0, 1, 1071, 11)"><g clip-path="url(#75f5511a27)"><g clip-path="url(#b8311e2b51)"><g clip-path="url(#b45e694678)"><path fill="#1a3863" d="M 0.664062 0.949219 L 149.113281 0.949219 L 149.113281 359.316406 L 0.664062 359.316406 Z M 0.664062 0.949219 " fill-opacity="1" fill-rule="nonzero"/></g></g></g></g></g></g><g clip-path="url(#3ddc494002)"><g clip-path="url(#e8126b4a70)"><g transform="matrix(1, 0, 0, 1, 957, 409)"><g clip-path="url(#0a4b3c68f1)"><g clip-path="url(#4e6e88fb89)"><g clip-path="url(#cd194db687)"><rect x="-1637" width="2592" fill="#1a3863" y="-1467.999976" height="2591.999885" fill-opacity="1"/></g></g></g></g></g></g><g clip-path="url(#d9229595ac)"><g clip-path="url(#510c4c90d3)"><g transform="matrix(1, 0, 0, 1, 1004, 409)"><g clip-path="url(#267555e62d)"><g clip-path="url(#43368bcaad)"><g clip-path="url(#414c49e1ef)"><rect x="-1684" width="2592" fill="#1a3863" y="-1467.999976" height="2591.999885" fill-opacity="1"/></g></g></g></g></g></g><g clip-path="url(#309c93dda7)"><g clip-path="url(#f32e08f3c0)"><g transform="matrix(1, 0, 0, 1, 1043, 409)"><g clip-path="url(#025912005e)"><g clip-path="url(#53b1c4f4ff)"><g clip-path="url(#3e1faada6c)"><rect x="-1723" width="2592" fill="#1a3863" y="-1467.999976" height="2591.999885" fill-opacity="1"/></g></g></g></g></g></g><g clip-path="url(#96c6bb8667)"><g clip-path="url(#3b4bc24652)"><g transform="matrix(1, 0, 0, 1, 1084, 409)"><g clip-path="url(#d11dd28ecd)"><g clip-path="url(#516954284a)"><g clip-path="url(#2d7aaff269)"><rect x="-1764" width="2592" fill="#1a3863" y="-1467.999976" height="2591.999885" fill-opacity="1"/></g></g></g></g></g></g><g clip-path="url(#5420f3816b)"><g clip-path="url(#b2777ab5ab)"><g transform="matrix(1, 0, 0, 1, 1131, 409)"><g clip-path="url(#3190c0fedd)"><g clip-path="url(#c502edf73d)"><g clip-path="url(#844c91c7c8)"><rect x="-1811" width="2592" fill="#1a3863" y="-1467.999976" height="2591.999885" fill-opacity="1"/></g></g></g></g></g></g><g clip-path="url(#5ff02fa2e9)"><g clip-path="url(#4b4644c79f)"><g transform="matrix(1, 0, 0, 1, 1166, 398)"><g clip-path="url(#5e451440f8)"><g clip-path="url(#bc17f3d3e8)"><g clip-path="url(#d983efe328)"><rect x="-1846" width="2592" fill="#1a3863" y="-1456.999976" height="2591.999885" fill-opacity="1"/></g></g></g></g></g></g><g clip-path="url(#8611e79480)"><g clip-path="url(#dfc0c793f6)"><g transform="matrix(1, 0, 0, 1, 1213, 398)"><g clip-path="url(#a77146f51b)"><g clip-path="url(#71f43bf3f0)"><g clip-path="url(#a058d60896)"><rect x="-1893" width="2592" fill="#1a3863" y="-1456.999976" height="2591.999885" fill-opacity="1"/></g></g></g></g></g></g></g></g></svg>